<svg xmlns="http://www.w3.org/2000/svg" width="458.058" height="57.492" viewBox="0 0 458.058 57.492">
  <g id="coldbrewlivery-logo" transform="translate(-21.897 -26.475)">
    <g id="wing">
      <path id="Path_17" data-name="Path 17" d="M471.455,41.985c.175.054-.017.217-.208.379-.7.6-1.515,1.082-2.217,1.677a7.612,7.612,0,0,0-1.42,1.408c-.529.649-2.118,1.191-4.359,1.677a31.56,31.56,0,0,1-3.436.163H442.989v0c-.414,0-.8,0-1.173,0h-.006c-2.439-.043-3.949-.466-4.607-3.268a6.281,6.281,0,0,1,.278-3.785,4.72,4.72,0,0,1,1.454-1.662c.3-.2.494-.142.551.18.793,3.162,2.874,2.8,5.676,2.8.65.054,2.972,0,3.686,0,.778-.054,3.133-.109,3.372-.109h5.6c1.667,0,6.3-.108,7.971-.108h.714c1.6.055,2.556.055,4.031.217C471.426,41.606,471.774,41.714,471.455,41.985Z" fill="#c3861a"/>
      <path id="Path_18" data-name="Path 18" d="M462.327,53.276c-1.476-.163-2.429-.163-4.031-.218h-.714c-1.667,0-6.1.108-7.766.108h-1.189c-.239,0-1.26.055-2.038.11a12.355,12.355,0,0,1-1.428,0c-2.8,0-4.883.366-5.676-2.818-.057-.324-.255-.377-.551-.181a4.746,4.746,0,0,0-1.454,1.673,6.363,6.363,0,0,0-.278,3.811c.658,2.82,2.168,3.245,4.607,3.289h.006c.37.006.759.006,1.173,0v0h7.795c.714,0,3.48-.055,3.846-.164,2.241-.49,4.24-1.035,4.769-1.688a7.636,7.636,0,0,1,1.421-1.417c.7-.6,1.515-1.089,2.217-1.689.191-.163.383-.327.207-.381C463.564,53.439,463.216,53.331,462.327,53.276Z" fill="#c3861a"/>
      <path id="Path_19" data-name="Path 19" d="M478.921,30.137c-1.475-.162-2.428-.162-4.031-.216h-.714c-1.667,0-8.357.108-10.024.108h-1.188c-.239,0-5.674.054-6.452.108-.714,0-9.6.055-10.254,0-2.8,0-5.91.364-6.7-2.8-.057-.322-.255-.375-.551-.18a4.733,4.733,0,0,0-1.455,1.662,6.3,6.3,0,0,0-.277,3.786c.657,2.8,2.168,3.225,4.607,3.269h.006c.37.006,3.427.005,3.841,0H465.12c.714,0,6.149-.055,6.515-.163,2.241-.487,3.829-1.029,4.359-1.678a7.551,7.551,0,0,1,1.42-1.407c.7-.6,1.515-1.083,2.217-1.678.191-.163.383-.326.207-.379C480.158,30.3,479.81,30.192,478.921,30.137Z" fill="#c3861a"/>
    </g>
    <g id="shadow">
      <path id="Path_15" data-name="Path 15" d="M452.531,65.667c-1.476-.163-2.429-.163-4.031-.217h-.714c-1.667,0-6.1.108-7.766.108l0,.016c-1.1.013-2.029.022-2.522.022H426.825c-.245,0-16.321.054-17.118.108-.731,0-20.766.055-21.432,0-2.2,0-17.808,0-20.426-.054H348.986c-1.217,0-20.126.054-21.1.054h-.731c-1.642-.054-19.434-.054-21.141-.054H287.721c-.976,0-18.945-.054-19.921-.054-1.156-.054-14.744-.054-15.72-.054-.486,0-23.289,0-24.085.054-.49,0-8.157.054-8.644.054-.8.054-8.894,0-9.629,0-.176-.054-11.417-.054-12.393-.054h-15.22c-.976,0-15.86,0-17.013-.054-1.642-.054-18.308-.054-20.015-.054h-18.86c-1.155-.054-21.291-.054-22.267-.054-2.683,0-33.875.108-36.622.162-.732,0-14.386.054-15.117.054s-5.425,0-5.6-.054a3.642,3.642,0,0,0-.912-.054c-.419,0-.781.018-1.117.042.013-.029.008-.047-.029-.047-.454.006-2.869-.1-3.7-.1-2.719.024-5.318-1.847-7.125-3.335a10.028,10.028,0,0,1-2.05-2.617,7.9,7.9,0,0,1-1.129-2.1c-.133-.461-.344-.821-.552-1.385a15.028,15.028,0,0,1-.457-3.848c.012-1.385.28-2.771.471-4.823l.447-2.052a16.624,16.624,0,0,1,.756-2.053A17.026,17.026,0,0,1,36.455,36.5a13.947,13.947,0,0,1,1.725-1.078,6.94,6.94,0,0,1,3.518-.872c.462,0,.808.051.961.051a5.706,5.706,0,0,0,.934.154,1.653,1.653,0,0,1,.776.36c.318.153.618.563.875.563.616,0,1.041-.82,1.319-1.282a30.477,30.477,0,0,1,1.79-4,4.245,4.245,0,0,0,.594-1.642.416.416,0,0,0-.133-.462,1.96,1.96,0,0,0-1.145-.513,12.324,12.324,0,0,0-2.422-.154,10.7,10.7,0,0,0-1.3.051,10.7,10.7,0,0,0-1.259.1c-.606.154-1.156.1-1.776.308a5.194,5.194,0,0,1-1.249.257,5.98,5.98,0,0,0-1.327.359c-1.331.564-2.523,1.18-3.779,1.847a9.316,9.316,0,0,0-1.181.769,20.927,20.927,0,0,0-3.048,2.566c-.561.564-1.071,1.129-1.685,1.693-.065.052-.143.154-.352.359-1.47,1.847-3.543,4.413-4.134,6.619a3.349,3.349,0,0,1-.254.565c-.1.359-.267.615-.364.974l-.935,3.489a23.006,23.006,0,0,0,.435,12.93c.331.873.856,1.591,1.252,2.412a.277.277,0,0,0,.151.2,18.388,18.388,0,0,0,2.069,2.925,19.571,19.571,0,0,0,3.35,2.873,3.179,3.179,0,0,1,.837.513c.66.717,2.991,1.254,4.358,1.39a18,18,0,0,0,3.782.38c.731,0,1.838-.108,2.5-.054.422.054,10.612.054,11.347.054,4.145,0,26.337.054,30.6.162.795-.054,9.756-.108,10.245-.108.976,0,11.523.108,12.743.108h5.742c.976,0,15.37,0,15.925-.054s16-.054,17.218-.054c1.641.054,37.723.108,39.43.108,4.145,0,49.284,0,53.85.054h86.419c1.462,0,2.924,0,4.014.108.731,0,18.779.054,19.51.054.976,0,16.486-.054,17.528-.108s15.922-.054,16.9-.054h55.681c.465.016,1.434,0,2.492-.033l0,.021c.714,0,3.48-.055,3.846-.163,2.241-.488,4.24-1.031,4.769-1.682a7.627,7.627,0,0,1,1.421-1.411c.7-.6,1.515-1.084,2.217-1.681.191-.163.383-.326.207-.38C453.768,65.829,453.42,65.721,452.531,65.667Z" fill="#3d302d"/>
      <path id="Path_1" data-name="Path 1" d="M74.157,34.81A15.829,15.829,0,0,0,72.565,30.6a5.864,5.864,0,0,0-1.51-1.642,7.611,7.611,0,0,0-3.867-1.077,7.2,7.2,0,0,0-1.5-.154,8.62,8.62,0,0,0-3.011.513,17.165,17.165,0,0,0-7.894,5.336,7.107,7.107,0,0,0-1.526,2.053c-.494,1.077-1.076,2.1-1.556,3.13a9.361,9.361,0,0,0-.989,2.924,18.276,18.276,0,0,0,.183,6.978c.054.564.354.975.459,1.539-.041.154.061.154.071.308.414.564.817.975,1.23,1.539a2.128,2.128,0,0,0,.506.41c.29.257.646.463.936.719a6.552,6.552,0,0,0,4.326,1.282,8.32,8.32,0,0,0,1.529-.153l.811-.154c3.917-.256,8.056-3.643,10.363-7.081a15.635,15.635,0,0,0,2.067-3.694,8.808,8.808,0,0,0,.873-2.873l.192-.719c.025-.666.218-1.385.242-2.052A28.6,28.6,0,0,0,74.157,34.81Zm-6.236,5.08-.508,1.9a11.088,11.088,0,0,1-3.328,5.337,5.985,5.985,0,0,1-3.556,1.59,3.794,3.794,0,0,1-1.635-.41c-2.2-1.539-2.275-4.721-1.505-7.594a8.372,8.372,0,0,1,1.3-3.13,9,9,0,0,1,4.164-4.053,6.045,6.045,0,0,1,1.865-.257,6.255,6.255,0,0,0,.971.206c.154,0,.116-.052.271-.052.051,0,.088.052.163.154l.3.411A6.585,6.585,0,0,1,67.921,39.89Z" fill="#3d302d"/>
      <path id="Path_2" data-name="Path 2" d="M68.343,57.848a2.505,2.505,0,0,0-.868-.2h-.154c-.359,0-.695.1-1.054.1h-.256c-.052,0-.117.052-.285.1-.153,0-.167.052-.307,0A14.122,14.122,0,0,1,64,57.8h-.873c-.256,0-.475.051-.68.051h-.154a5.365,5.365,0,0,0-.91-.051H57.531c-.2,0-.448-.052-.653-.052a3,3,0,0,0-.654-.051,1.408,1.408,0,0,0-.424.051c-.1,0-.168.052-.27.052-.168.051-.1,0-.257,0-.037-.052-.191-.052-.4-.052h-.77a3.463,3.463,0,0,1-.7-.051,8.059,8.059,0,0,0-1.115-.051h-.872a3.388,3.388,0,0,0-.7-.052c-.565,0-1.157.1-1.735.154-.154,0-.373.052-.527.052s-.257,0-.294-.052-.089-.051-.191-.051c-.462,0-.661.36-.846.667-.042.154-.134.308-.175.462-.093.154-.172.256-.148.359a4.533,4.533,0,0,1-.282,1.437L46,62.517c-.045.359.143.616.516.564.154,0,.387-.1.527-.05a.922.922,0,0,0,.4.05,23.893,23.893,0,0,1,2.678.154,1.592,1.592,0,0,1,.387-.1c.205,0,.434.1.69.1h.1a1.254,1.254,0,0,0,.475-.051,1.415,1.415,0,0,1,.527-.051,6.467,6.467,0,0,0,1,.1c.872,0,1.745,0,2.7.052h5.8a2.172,2.172,0,0,1,.844.1c.154,0,.192.051.346.051a2.481,2.481,0,0,0,.592-.1,3.12,3.12,0,0,1,.68-.051h2.207a.324.324,0,0,0,.3-.154,2.949,2.949,0,0,0,.939-1.59,11.808,11.808,0,0,1,.306-1.335c.151-.564.326-1.026.477-1.59.042-.154.083-.308.045-.359C68.61,58,68.535,57.9,68.343,57.848Z" fill="#3d302d"/>
      <path id="Path_3" data-name="Path 3" d="M73.236,63.441a4.785,4.785,0,0,0,.859.051h7.389a2.644,2.644,0,0,0,.9-.1,6.19,6.19,0,0,1,1.361-.1h5.029a9.593,9.593,0,0,1,2.114.154h.41a5.259,5.259,0,0,1,2.39.462,5.3,5.3,0,0,1,.626.154.834.834,0,0,0,.674-.411c.12-.256.278-.461.426-.821.61-1.129,2.226-4.669,2.935-5.593.1-.359-.091-.615-.362-.564a15.467,15.467,0,0,1-3.962.616h-3.9a10.193,10.193,0,0,0-1.772.1c-.257,0-.49.1-.746.1h-.718a2.8,2.8,0,0,0-.756-.051,1.734,1.734,0,0,0-.578.051H83.246c-.154,0-.257,0-.3-.051a1.011,1.011,0,0,1-.891-1.078,1.623,1.623,0,0,1,.1-.564c.113-.616.19-1.283.317-1.95.124-.462,1.224-4.566,1.354-4.669a9.859,9.859,0,0,0,.58-1.591c.234-.872.481-1.795.767-2.668a5.023,5.023,0,0,1,.487-1.436,3.027,3.027,0,0,0,.344-1.283,10.238,10.238,0,0,1,.227-1.232c.179-.667.408-1.333.537-2a11.355,11.355,0,0,0,.665-2.1,5.062,5.062,0,0,0,.547-1.847,3.977,3.977,0,0,1,.522-1.95l.083-.308a4.583,4.583,0,0,1,.83-1.95,4.292,4.292,0,0,0,.758-1.488c.041-.154,0-.2-.1-.2a2.312,2.312,0,0,0-1.047-.308.732.732,0,0,0-.372.052.751.751,0,0,1-.373.051h-.36a1.035,1.035,0,0,0-.447-.051H84.4a3.976,3.976,0,0,0-1.4.256,1.171,1.171,0,0,0-.6.719,2.375,2.375,0,0,1,.078.667,8.965,8.965,0,0,1-.417,2.514c-.234.872-.5,1.693-.739,2.565-.367,1.181-.591,2.206-1.061,3.386a2.769,2.769,0,0,0-.234.873,6.889,6.889,0,0,1-.261.974c-.367,1.181-.707,2.258-1.024,3.438-.165.616-.343,1.283-.574,1.95a9.9,9.9,0,0,0-.587,2l-.042.154a3.963,3.963,0,0,0-.432,1.231,2.791,2.791,0,0,0-.241,1.283,4.13,4.13,0,0,0-.446,1.283,9.218,9.218,0,0,0-.251,1.129,15.559,15.559,0,0,1-.695,2.976c-.175.461-.2.923-.371,1.385a7.693,7.693,0,0,0-.66,1.693A11.168,11.168,0,0,1,73.1,62.415c-.042.154-.121.257-.162.41C72.82,63.081,72.98,63.441,73.236,63.441Z" fill="#3d302d"/>
      <path id="Path_4" data-name="Path 4" d="M134.705,37.427a.128.128,0,0,0-.024-.1,7.365,7.365,0,0,0-1.429-3.283,8.792,8.792,0,0,1-.929-1.129c-1.505-2.617-4.9-4.31-8.166-4.566-2.575-.155-5.127-.206-7.744-.206-.667,0-1.3.051-2.271.051h-1.385a12.238,12.238,0,0,0-2.686.257,1.016,1.016,0,0,0-.552.718c.038.052.024.1.034.257a5.975,5.975,0,0,1,.062,2.257c-.326,1.027-.2,2.1-.633,3.13a.8.8,0,0,0-.072.462,15.024,15.024,0,0,1-.682,2.925c-.055.205-.161.41-.2.565a33.774,33.774,0,0,1-1,3.745,5.287,5.287,0,0,1-.594,1.642c-.064.051-.078.1-.119.256-.128.667-.344,1.283-.523,1.95-.334,1.437-.719,2.873-1.052,4.31-.22.821-.426,1.591-.581,2.36a24.125,24.125,0,0,1-.6,2.617,21.959,21.959,0,0,0-.786,2.36,15.942,15.942,0,0,1-1.725,3.951,2.676,2.676,0,0,0-.529.821,1.187,1.187,0,0,0,.007.359.391.391,0,0,0,.393.257h.564a7.757,7.757,0,0,1,1.851-.206h.564c1.064.051,2.128.1,3.14.154h.565c1.809-.051,3.53-.154,5.326-.154a3.745,3.745,0,0,0,1.272-.153c.667,0,1.4-.257,2.019-.257a1.178,1.178,0,0,1,.5.051c.154,0,.271-.051.424-.051.863-.154,1.743-.565,2.6-.718a17.115,17.115,0,0,0,7.285-4.978.8.8,0,0,1,.223-.256,17.823,17.823,0,0,0,3.576-4.156,17.07,17.07,0,0,0,2.4-3.8,15.9,15.9,0,0,0,1.391-3.848c.206-.77.783-2.925.511-3.438A8.587,8.587,0,0,0,134.705,37.427Zm-6.7,5.49a13.265,13.265,0,0,1-.581,2.361,13.01,13.01,0,0,1-1.795,4.207,2.506,2.506,0,0,0-.473.615,9.792,9.792,0,0,1-1.377,1.694c-2.716,2.667-6.034,5.284-9.574,5.284a2.072,2.072,0,0,0-.746.1,2.283,2.283,0,0,1-.63.051,1.984,1.984,0,0,1-.6-.051c-.256,0-.578.051-.834.051h-.821c-.36,0-.719,0-.776-.359a2.347,2.347,0,0,1,.127-.667l1.457-5.438c.22-.822.492-1.642.712-2.463.206-.77.306-1.334.563-2.1.162-.41.169-.821.33-1.231a12.312,12.312,0,0,1,.484-1.232,1.883,1.883,0,0,0,.193-.718,5.942,5.942,0,0,1,.5-2.053c.147-.359.215-.615.363-.974.261-.975.574-1.95.784-2.925.151-.564.5-.923.5-1.488.041-.154.172-.257.264-.411a.861.861,0,0,1,.544-.307h.308c.411,0,.835-.052,1.194-.052a1.435,1.435,0,0,1,.5.052c.1,0,.14.051.192.051h.564c.154,0,.373-.051.527-.051h.154c3.779.257,7.01,1.8,7.727,5.438a12.747,12.747,0,0,1,.248,1.95A2.982,2.982,0,0,1,128,42.917Z" fill="#3d302d"/>
      <path id="Path_5" data-name="Path 5" d="M180.548,47.125a4.213,4.213,0,0,0-1.041-2.053,6.114,6.114,0,0,0-1-.872,6.654,6.654,0,0,0-1.052-.667,4.152,4.152,0,0,0-1.177-.205c-.051,0-.345-.051-.331-.1l.041-.154c.065-.051.144-.154.209-.2a13.688,13.688,0,0,0,2.98-3.079c.092-.153.158-.2.25-.359.562-.564.9-2.206,1.218-2.822a4.387,4.387,0,0,0,.55-2.052c0-.564-.009-.923-.012-1.488a5.07,5.07,0,0,0-4.748-4.875,23.381,23.381,0,0,1-2.7-.256c-.256,0-.55-.051-.806-.051a3.53,3.53,0,0,0-1.287.2,1.906,1.906,0,0,1-.578.051c-.564,0-.989.051-1.553.051-.359,0-.8.1-1.157.1-.153,0-.191-.051-.345-.051-.606.154-.974,0-1.58.154h-1.9a7.186,7.186,0,0,0-1.039.051c-.873,0-1.68-.051-2.655-.051a6.416,6.416,0,0,0-.848.1c-.154,0-.39.307-.432.461.01.154-.068.257-.059.411.044.41.075.872.119,1.282a4.878,4.878,0,0,1-.091,1.488l-.784,2.925a6.048,6.048,0,0,0-.515,1.539c-.241,1.283-.52,2.515-.85,3.746a5.293,5.293,0,0,1-.279,1.231,2.772,2.772,0,0,0-.33,1.231,6.67,6.67,0,0,0-.49,1.642c-.2.565-.3,1.129-.506,1.694a2.811,2.811,0,0,1-.288,1.077c-.482,1.8-1.028,3.643-1.509,5.439-.615,2.1-1.024,4.207-1.728,6.26a4.468,4.468,0,0,1-.961,2.052,8.074,8.074,0,0,1-1.038,1.385,3.467,3.467,0,0,1-.251.359,1,1,0,0,0-.017.257.6.6,0,0,0,.455.411c.666,0,1.269.051,1.935.051h4.208c2.514,0,5.029,0,7.631.051a6.631,6.631,0,0,1,1.768.1c.038.052.141.052.295.052a.443.443,0,0,0,.27-.052,10.079,10.079,0,0,1,2.6-.718,11.682,11.682,0,0,0,1.845-.564c1.19-.616,2.433-1.232,3.624-1.847a8.91,8.91,0,0,0,2.719-2.1,12.75,12.75,0,0,0,1.6-1.949,11.643,11.643,0,0,0,1.08-2.31,11.2,11.2,0,0,0,.862-3.027,4.977,4.977,0,0,0,.071-1.8C180.792,48.51,180.7,47.894,180.548,47.125ZM173.4,53.692c-1.435,2.1-4.214,3.284-6.517,3.643a22.9,22.9,0,0,1-3.711.256c-.578.052-1.194.052-1.81.052-.564,0-1.064-.052-1.615-.1-.359,0-.365-.36-.3-.616.525-1.385.794-2.771,1.229-4.208.316-1.18.506-2.462.888-3.694.055-.206.175-.462.23-.667.092-.154.195-.154.261-.2a19.516,19.516,0,0,1,2.5-.154,2.577,2.577,0,0,1,.705.051,6.519,6.519,0,0,0,.989-.051,12.8,12.8,0,0,1,2.4-.154,10.935,10.935,0,0,1,2.993.513,4.287,4.287,0,0,1,2.289,1.8,1.572,1.572,0,0,1,.269.718A3.771,3.771,0,0,1,173.4,53.692Zm.938-16.522c-.147.36-.361,1.54-.508,1.9-1.07,2.463-3.92,2.566-5.921,2.566-1.091.051-2.169.051-3.246.051a1.176,1.176,0,0,1-.5-.051c-.141-.052-.164-.154-.151-.206-.037-.051,0-.205.059-.41l.742-2.771c.261-.975.682-2.925.943-3.9a.535.535,0,0,1,.455-.359h.41a2.861,2.861,0,0,0,.732-.052h.36a.542.542,0,0,0,.321-.051,6.867,6.867,0,0,1,1-.1,8.645,8.645,0,0,1,1.1.1c.257,0,.448.051.807.051a7.748,7.748,0,0,0,.848-.1,1.392,1.392,0,0,1,.527-.052,3,3,0,0,0,.678.154,1.725,1.725,0,0,1,1.216.821A2.392,2.392,0,0,1,174.338,37.17Z" fill="#3d302d"/>
      <path id="Path_6" data-name="Path 6" d="M204.951,28.294h-6.157a2.993,2.993,0,0,0-.654-.051c-.988.051-1.963.051-2.938.051h-1.231a4.673,4.673,0,0,0-1.892.359c-.517.206-.754.513-.607.924a3.066,3.066,0,0,1-.224,1.8,2.3,2.3,0,0,0-.156.769c-.1.36-.1.77-.213,1.18-.451,2.258-1.159,4.516-1.8,6.722-.2.564-.261.975-.464,1.539a24.81,24.81,0,0,0-.789,2.566c-.486,2-1.083,3.848-1.465,5.849-.452,2.258-1.392,4.618-1.843,6.875a26.239,26.239,0,0,1-.842,3.335c-.23.667-.214,1.181-.929,1.745a5.338,5.338,0,0,0-.706.719c-.222.256-.175.461.054.563a1.149,1.149,0,0,0,.766.206c.873,0,1.745,0,2.734-.051h.615a4.768,4.768,0,0,0,.858.051h2.31a.891.891,0,0,0,.489-.1.836.836,0,0,0,.6-1.282,2.575,2.575,0,0,1-.511-1.54,8.245,8.245,0,0,1,.309-1.539c.211-.975.475-2.155.685-3.13l.646-2.412c.152-.564.187-1.077.39-1.641a7.925,7.925,0,0,1,.912-2.258.526.526,0,0,1,.442-.308h2.719c.154,0,.28.1.263.359.092.616.234,1.232.34,1.8.228.873.288,1.8.465,2.668a10.6,10.6,0,0,0,.4,1.95c.113.154.034.257.044.411a3.884,3.884,0,0,0,.053,1.333c.109,3.233,1.043,5.49,4.682,5.7a6.775,6.775,0,0,0,4.021-1.026,5.066,5.066,0,0,0,1.483-1.9c.148-.359.049-.564-.31-.564-3.575-.257-3.648-4-4.431-6.824-.1-.2-.03-.462-.129-.668-.276-1.077-.384-2.2-.557-3.283-.048-.2.031-.308.3-.36a16.286,16.286,0,0,0,8.167-6.156c.092-.154.25-.36.342-.513.285-.873.813-1.694,1.2-2.566a2.87,2.87,0,0,0,.5-1.488C213.029,32.039,211.467,28.294,204.951,28.294Zm1.544,9.749a6.7,6.7,0,0,1-6.082,5.08c-.564,0-1-.1-1.563-.1a1.717,1.717,0,0,0-.526.051,2.244,2.244,0,0,1-.63.052c-.411,0-.808-.052-1.217-.052l-.014.052h-1.745c-.206,0-.28-.1-.212-.359.155-.77.361-1.54.568-2.31l1.361-5.079c.123-.462.305-.565.705-.719a2.821,2.821,0,0,1,.606-.153c.1,0,.205,0,.243.051a7.338,7.338,0,0,0,1.064.051c1.231,0,2.425-.051,3.67-.1a6.636,6.636,0,0,0,1.012.051C205.736,34.554,207.086,35.837,206.495,38.043Z" fill="#3d302d"/>
      <path id="Path_7" data-name="Path 7" d="M225.886,38.505c.26-.206.559-.359.767-.565a13.956,13.956,0,0,1,1.689-1.129,13.222,13.222,0,0,1,4.828-1.744c.872,0,1.707-.051,2.528-.051a2.611,2.611,0,0,1,1.1.1c.574.153,1.89.41,2.149.974.114.154.136.257.249.411a2.911,2.911,0,0,0,.239.257c.038.05.09.05.243.05a.394.394,0,0,0,.285-.1c.3-.359.6-.718.852-1.077a2.041,2.041,0,0,0,.334-.668,3.038,3.038,0,0,0,.434-.667,38.658,38.658,0,0,0,2-3.437c.319-.616.323-.822-.146-1.181a4.375,4.375,0,0,0-2.686-1.077,2.784,2.784,0,0,1-.655-.051,16.491,16.491,0,0,0-2.061-.154,14.111,14.111,0,0,0-2.363.2,2.933,2.933,0,0,1-.734.051c-4.669,0-10.621,2.874-14.029,6.979-1.038,1.385-2.05,2.667-2.985,4.053a17.094,17.094,0,0,0-2.634,5.233c-.256.77-.449,1.489-.706,2.258a1.3,1.3,0,0,0-.087.513,15.4,15.4,0,0,0-.2,5.131,11.471,11.471,0,0,0,3.982,7.542,5.017,5.017,0,0,1,.923.77,5.529,5.529,0,0,0,2.44,1.231,15.037,15.037,0,0,0,4.418,1.129c.756.052,1.474.052,2.128.1.783-.05,1.4-.05,2.08-.1a10.925,10.925,0,0,0,3.583-.923,2.027,2.027,0,0,0,1.466-1.642c0-.206.021-.462.024-.667a11.914,11.914,0,0,1,.15-1.9c.151-.564.239-2.617-.428-2.617a.626.626,0,0,0-.466.205c-.065.052-.143.155-.338.309a2.843,2.843,0,0,1-1.76.82,14.8,14.8,0,0,1-2.955.308,6.963,6.963,0,0,1-1.9-.205.9.9,0,0,0-.4-.051c-1.5-.154-4.887-1.488-5.31-2.976a8.2,8.2,0,0,1-1.132-4.772c.041-.154.264-.41.417-.41a5.269,5.269,0,0,1,.863-.155c1.591,0,3.2-.05,4.786-.05a10.13,10.13,0,0,1,2.165.153,2.707,2.707,0,0,0,.653.052,5.283,5.283,0,0,1,1.471.256,1.149,1.149,0,0,0,.5.052.513.513,0,0,0,.363-.206,5.894,5.894,0,0,0,.254-.564l.564-2.1a17.438,17.438,0,0,1,1.024-3.438c.148-.36-.027-.668-.387-.668-.166.052-.373.052-.591.1a18.216,18.216,0,0,1-4.961.513,3.563,3.563,0,0,1-.835.052,20.939,20.939,0,0,1-2.5.154,8.8,8.8,0,0,1-2.075-.1c-.1,0-.141-.051-.114-.154a13.268,13.268,0,0,1,3.1-4.1C225.7,38.607,225.691,38.659,225.886,38.505Z" fill="#3d302d"/>
      <path id="Path_8" data-name="Path 8" d="M248.2,29.218c.113.154.427.513.424.718.1.2-.009.411-.012.616.058.359-.258.769-.11,1.18a1.257,1.257,0,0,1-.067.821,18.928,18.928,0,0,0-.133,2.411,11.914,11.914,0,0,1-.125,2l.019,1.078c0,.564-.122,1.026-.091,1.488-.107.975-.174,1.8-.229,2.77l-.041.154a10.7,10.7,0,0,0-.229,1.232c-.024.667-.189,1.283-.213,1.95-.069.256-.237,2.411-.306,2.668a3.035,3.035,0,0,1-.058,1.18,8.27,8.27,0,0,0-.119,1.59c-.014.052.024.1.01.154a1.6,1.6,0,0,1,.019.308c-.024.667-.189,1.283-.2,1.9s.043,1.18.031,1.795c-.072.462-.261.975.053,1.334l-.055.206c-.055.205-.175.461.041.615l-.027.1c-.042.154-.107.205-.148.359,0,.565-.136,1.078-.132,1.642a.313.313,0,0,1,.048.2,2.47,2.47,0,0,1-.023.462,2.153,2.153,0,0,1-.158.975c-.2.564-.288,1.077-.491,1.642s-.066.82.395.82h.1a2.771,2.771,0,0,0,.8-.1,5.977,5.977,0,0,1,.914-.154,1.94,1.94,0,0,1,.485.1,3.386,3.386,0,0,0,.589.1,3.119,3.119,0,0,0,.489-.1h.307a8.067,8.067,0,0,0,1.115.051c.155,0,.373-.051.528-.051.1,0,.2,0,.242.051a.147.147,0,0,0,.258,0,1.587,1.587,0,0,1,.386-.1,1.943,1.943,0,0,1,.485.1,1.871,1.871,0,0,0,.538.1.7.7,0,0,0,.464-.2h.257c.681-.052,1.02-.359.9-.873a4.9,4.9,0,0,1,.3-1.693,5.3,5.3,0,0,1,.577-1.385c.36-.77.562-1.334.923-2.1.3-.564.507-1.129.813-1.693s.456-1.129.761-1.694a44.376,44.376,0,0,1,2.25-4.566c.2-.359,2.78-6.927,2.9-7.388a.566.566,0,0,1,.157-.206.315.315,0,0,1,.048.206c-.1.359-.977,6.516-.97,6.875-.045.359-.053.77-.1,1.129a3.4,3.4,0,0,1,.023.872c-.045.359-.2.564-.117.821.113.154.058.359.068.513a1.148,1.148,0,0,1-.1.77c-.014.051.038.051,0,.205.01.154.072.308.082.462-.073.461-.094.923-.152,1.334-.1.565-.158.974-.231,1.437-.046.359-.012.615-.056.974.058.359-.131.873-.074,1.232,0,.205-.11.41,0,.564a3.888,3.888,0,0,1-.026,1.437,5.12,5.12,0,0,1-.4,1.693c-.093.154-.041.154-.055.2a2.055,2.055,0,0,0,.27.718c.036.052.125.1.163.155.089.051.127.1.229.1h1.026a8.705,8.705,0,0,0,1.087.154h.155a.534.534,0,0,1,.321-.052c.257,0,.449.052.653.052h.719a2.557,2.557,0,0,1,.541-.1c.1,0,.2,0,.242.05s.141.052.308,0c.219-.05.386-.1.438-.1a2.271,2.271,0,0,1,.435.1.664.664,0,0,0,.345.052,3.021,3.021,0,0,0,1.1-.256c.462,0,.67-.2.678-.616a4.365,4.365,0,0,1,.162-1.181,3.062,3.062,0,0,1,.155-.769c.068-.256.24-.513.295-.718.278-.462.3-.924.562-1.334l1.562-3.335c.277-.462.349-.924.655-1.489a8.343,8.343,0,0,1,.627-1.385c.361-.769.717-1.334,1.078-2.1.3-.563.531-1.026.836-1.59.042-.154.107-.2.148-.359l.442-1.078c.148-.359.371-.616.517-.975.265-.41.426-.82.689-1.231l.681-1.385c.277-.462.5-.924.78-1.386.319-.615.55-1.282.933-1.949.464-.77.837-1.591,1.263-2.412.277-.461.414-.974.693-1.436s.606-.924.883-1.386c.593-.872,1.218-2.052,1.811-2.924.383-.668,1.055-1.642,1.476-2.258a.939.939,0,0,1,.3-.359c.557-.359,1.385-.77.921-1.334a.54.54,0,0,0-.383-.1,1.1,1.1,0,0,0-.425.052,1.485,1.485,0,0,0-.28-.1c-.153,0-.117.051-.27.051h-.821c-.052,0-.139-.051-.191-.051h-1.694a4.685,4.685,0,0,0-.806-.052c-.579.052-1,.1-1.567.1a8.756,8.756,0,0,0-1.119.154c-.154,0-.335.1-.558.359a1.267,1.267,0,0,0-.323.822,17.262,17.262,0,0,1-1.461,3.539c-.041.154-.437.668-.478.822-.118.256-.151.564-.27.82a11.049,11.049,0,0,0-1.105,2.207c-.013.051-.079.1-.092.153-.263.411-.579.822-.843,1.232-.25.36-.257.769-.522,1.18-.414.975-.854,1.847-1.32,2.822-.055.205-1.146,2.361-1.146,2.361-.013.05-.027.1-.079.1-.29.513-1.07,3.232-1.376,3.8-.121.256-.227.462-.346.718a8.706,8.706,0,0,0-.464.77c-.318.616-.469,1.18-.788,1.795a2.409,2.409,0,0,1-.305.565c-.065.051-.13.1-.144.154a.163.163,0,0,1-.01-.154c0-.565-.033-1.026-.036-1.59.053-.77.115-1.386.166-2.155.067-.822.72-3.643.787-4.465.052-.769.039-1.488.105-2.308.045-.359.231-.668.145-.924a8.3,8.3,0,0,1,.067-1.59c0-.565.122-1.027.118-1.591a4.541,4.541,0,0,0,.06-1.18,33.277,33.277,0,0,1,1.025-6.311,2.054,2.054,0,0,1,.335-.872,1.418,1.418,0,0,0,.354-1.129.431.431,0,0,0-.454-.41,1.242,1.242,0,0,1-.271.05,5.647,5.647,0,0,1-1.579.154H267.2a6.382,6.382,0,0,0-.988.052.151.151,0,0,0-.141-.052,9.62,9.62,0,0,0-1.217-.051h-.411a1.253,1.253,0,0,0-.759.154.654.654,0,0,0-.309.77,2.339,2.339,0,0,1,.223,1.077c-.014.052-.014.052.024.1-.148.359-.332.667-.48,1.026a2.962,2.962,0,0,1-.127.667c-.278.462-.785,1.591-1.063,2.053a13.968,13.968,0,0,0-1.074,2.668c-.162.41-.425.821-.586,1.231a14.757,14.757,0,0,1-1.105,2.206c-.3.565-.4,1.129-.71,1.693-.356.565-.368,1.181-.878,1.745a.28.28,0,0,0-.12.257,2.447,2.447,0,0,1-.48,1.025c-.093.155-.2.36-.292.514-.3.564-2.586,6.208-2.628,6.362-.092.154-.6,1.283-.9,1.848l-.028.1-.075-.1c.041-.155.106-.206.1-.36-.191-.821.978-7.286,1-7.953,0-.205.059-.411.064-.616.013-.82.08-1.641.08-2.411,0-.564.136-1.077.133-1.642a1.294,1.294,0,0,1,.086-.513c.01-.616.125-1.232.084-1.847a10.857,10.857,0,0,0,.106-2.309c.011-.616.111-1.18.122-1.8a14.665,14.665,0,0,0,.181-2.206c.055-.206-.058-.359-.017-.513.057-.975.761-1.694.94-2.36.151-.565-.347-.616-.809-.616-.564,0-.746.1-1.105.1-.155,0-.243-.052-.4-.052H252.3a6.881,6.881,0,0,0-1,.1c-.205,0-.475.051-.681.051-.41,0-1.05-.1-1.46-.1-.153,0-.346-.052-.5-.052C248.262,28.6,248.063,28.961,248.2,29.218Z" fill="#3d302d"/>
      <path id="Path_9" data-name="Path 9" d="M283.149,63.441a4.775,4.775,0,0,0,.859.051H291.4a2.639,2.639,0,0,0,.9-.1,6.207,6.207,0,0,1,1.363-.1h5.028a9.579,9.579,0,0,1,2.113.154h.411a5.259,5.259,0,0,1,2.39.462,5.35,5.35,0,0,1,.626.154.838.838,0,0,0,.675-.411c.12-.256.277-.461.424-.821.611-1.129,2.226-4.669,2.936-5.593.1-.359-.092-.615-.361-.564a15.481,15.481,0,0,1-3.963.616h-3.9a10.2,10.2,0,0,0-1.773.1c-.256,0-.488.1-.746.1H296.8a2.794,2.794,0,0,0-.756-.051,1.74,1.74,0,0,0-.578.051h-2.309c-.153,0-.256,0-.294-.051a1.013,1.013,0,0,1-.892-1.078,1.691,1.691,0,0,1,.1-.564c.113-.616.189-1.283.316-1.95.124-.462,1.224-4.566,1.354-4.669a9.851,9.851,0,0,0,.579-1.591c.234-.872.482-1.795.767-2.668a5.023,5.023,0,0,1,.488-1.436,2.983,2.983,0,0,0,.343-1.283,10.44,10.44,0,0,1,.227-1.232c.179-.667.409-1.333.537-2a11.364,11.364,0,0,0,.666-2.1,5.081,5.081,0,0,0,.547-1.847,3.956,3.956,0,0,1,.522-1.95l.083-.308a4.571,4.571,0,0,1,.83-1.95,4.309,4.309,0,0,0,.758-1.488c.041-.154,0-.2-.1-.2a2.311,2.311,0,0,0-1.045-.308.73.73,0,0,0-.373.052.749.749,0,0,1-.373.051h-.36a1.035,1.035,0,0,0-.447-.051h-3.08a3.974,3.974,0,0,0-1.4.256,1.174,1.174,0,0,0-.6.719,2.332,2.332,0,0,1,.077.667,8.929,8.929,0,0,1-.416,2.514c-.233.872-.505,1.693-.739,2.565-.367,1.181-.591,2.206-1.061,3.386a2.742,2.742,0,0,0-.234.873,6.889,6.889,0,0,1-.261.974c-.368,1.181-.708,2.258-1.024,3.438-.165.616-.344,1.283-.573,1.95a9.839,9.839,0,0,0-.588,2l-.041.154a3.915,3.915,0,0,0-.433,1.231,2.778,2.778,0,0,0-.241,1.283,4.13,4.13,0,0,0-.446,1.283,9.036,9.036,0,0,0-.251,1.129,15.633,15.633,0,0,1-.7,2.976c-.175.461-.2.923-.371,1.385a7.692,7.692,0,0,0-.66,1.693,11.169,11.169,0,0,1-1.337,3.079c-.041.154-.12.257-.161.41C282.733,63.081,282.892,63.441,283.149,63.441Z" fill="#3d302d"/>
      <path id="Path_10" data-name="Path 10" d="M308.453,28.326c-.154,0-.267.039-.42.039-.268.039-.557.352-.456.547a.346.346,0,0,0,.133.274c.378.313.313.743.249,1.173-.237.313-.157.586-.23.86a4.7,4.7,0,0,1-.274,1.407,2.989,2.989,0,0,0-.219.625c-.106.587-.232,1.056-.389,1.642-.1.587-.3,1.134-.409,1.72L306,38.255a7.165,7.165,0,0,1-.461,1.72,3.758,3.758,0,0,0-.147.743,4.121,4.121,0,0,1-.108.782l-.66,2.463c-.231,1.055-.483,1.993-.766,3.049a15.21,15.21,0,0,1-.761,2.463c-.251.742-.532,1.407-.731,2.15a6.377,6.377,0,0,1-1.717,2.58.3.3,0,0,0,.171.508c.4.039.8.078,1.16.078a4.048,4.048,0,0,0,.78-.039.665.665,0,0,1,.318-.039h.1a9.43,9.43,0,0,0,1.825.078h.565a5.223,5.223,0,0,0,1.582-.157c.184-.117.369-.038.585-.077h.718c.165-.04.113-.04.277-.078.154,0,.372-.235.352-.353s0-.195-.019-.312c-.161-.548-.056-1.134-.176-1.642-.122-.313.157-.587.282-.86l.021-.078c-.091-.43.158-.782.273-1.212a9.27,9.27,0,0,1,.212-1.173c.418-1.368.733-2.736,1.1-4.1a7.524,7.524,0,0,0,.338-1.838,9.1,9.1,0,0,1,.277-1.6c.252-1.134.545-2.228.849-3.362.283-1.055.534-1.993.868-3.049a4.169,4.169,0,0,1,.583-1.6c.186-.118.125-.274.167-.43a10.4,10.4,0,0,0,.365-1.173,7.336,7.336,0,0,1,1.348-2.541c.093-.156.176-.274.187-.313.238-.313-.15-.782-.571-.743a6.029,6.029,0,0,0-.832.039,20.542,20.542,0,0,1-3.438.2Z" fill="#3d302d"/>
      <path id="Path_11" data-name="Path 11" d="M347.641,28.243a1.944,1.944,0,0,0-.6-.052c-.629.052-1.206.1-1.771.1-.36,0-.7-.051-1.116-.051a6.5,6.5,0,0,1-.988.051,6.807,6.807,0,0,1-1.843-.2h-.1a.807.807,0,0,0-.887.821,3.949,3.949,0,0,1-.186,1.078,17.367,17.367,0,0,1-1.677,3.386q-.395.615-.792,1.231a30.362,30.362,0,0,0-1.609,3.13c-.517.975-1.048,2-1.713,3.335-.251.359-.412.77-.675,1.18-.251.359-.293.514-.542.873a50.253,50.253,0,0,1-2.562,4.771c-.306.564-.555.923-.861,1.488-.462.77-1.217,2.822-1.694,3.643l-.318.616c-.014.051-.079.1-.21.205a.306.306,0,0,1-.048-.205c-.036-.052-.009-.154.019-.257.024-.667.235-2.411.232-2.975.016-.822-.137-1.592-.072-2.412a.3.3,0,0,0-.048-.205c-.029-.462-.1-.976-.127-1.437,0-.77.206-1.54.156-2.309.011-.616-.015-1.282-.055-1.9,0-.206-.1-.411-.092-.616a64.884,64.884,0,0,1,.194-9.338l.217-1.386a2.057,2.057,0,0,1,.154-.77c.162-.409.835-.82.779-1.179-.133-.462-1.224-.411-1.789-.411-.858-.051-1.731-.051-2.59-.1h-1.282c-.256,0-.434-.1-.793-.1a.449.449,0,0,0-.27.051,1.1,1.1,0,0,1-.425.052c-.256,0-.5-.052-.756-.052h-.462a.561.561,0,0,0-.622.411,1.793,1.793,0,0,0,.019.308,11.666,11.666,0,0,1,.376,3.386,2.222,2.222,0,0,0-.015.821c0,.564.158,1.9.161,2.462a25.826,25.826,0,0,0,.065,2.823c0,.77.036,1.59.086,2.36,0,.564.06.923.063,1.488.009.154-.082.308.03.461a8.551,8.551,0,0,0,.115,1.488c.053.565-.019,1.027-.016,1.591a1.09,1.09,0,0,0,.1.564c0,.206-.11.411-.01.616a24.95,24.95,0,0,0,.129,2.771c.036.821.008,1.693.031,2.566l.079,2-.044,2.462c-.025.668.074.872.021,1.642a6.132,6.132,0,0,1-.055.975,1.751,1.751,0,0,0-.019,1.026,2.474,2.474,0,0,1-.416,1.745c-.013.051-.065.051-.079.1-.3.359-.182.872.28.872a.509.509,0,0,0,.232-.1,23.082,23.082,0,0,0,3.281.205h2.051a6.288,6.288,0,0,0,1.722-.1h.256a.781.781,0,0,0,.856-.513.591.591,0,0,0-.1-.564c-.01-.154.017-.256.007-.41.251-.359.361-.77.624-1.18.093-.154.251-.36.357-.565.976-1.539,3.97-6.773,4.3-7.44.147-.359.319-.616.439-.872a8.908,8.908,0,0,1,.463-.769c.3-.565.606-.924.912-1.489.263-.41.373-.82.624-1.179.065-.052.13-.1.144-.155a21.593,21.593,0,0,0,1.933-3.386.483.483,0,0,0,.121-.257c.356-.564.685-1.026,1.041-1.59l1.347-2.155c.834-1.386,1.56-2.565,2.392-3.95.279-.463.786-1.592,1.064-2.053a50.919,50.919,0,0,1,3.03-4.413A7.964,7.964,0,0,1,349,28.91c.352-.359.229-.667-.232-.667Z" fill="#3d302d"/>
      <path id="Path_13" data-name="Path 13" d="M393.114,28.294h-6.156a2.993,2.993,0,0,0-.653-.051c-.99.051-1.964.051-2.939.051h-1.232a4.676,4.676,0,0,0-1.892.359c-.517.206-.752.513-.606.924a3.067,3.067,0,0,1-.225,1.8,2.281,2.281,0,0,0-.155.769c-.1.36-.1.77-.213,1.18-.452,2.258-1.159,4.516-1.8,6.722-.2.564-.262.975-.464,1.539a25.085,25.085,0,0,0-.791,2.566C375.5,46.15,374.9,48,374.523,50c-.4,2-1.169,4.084-1.656,6.106-1.862,1.014-4.8,1.136-6.248,1.206-1.733.085-5.027.076-6,.076-.028,0-.052,0-.08,0-.933-.089-1.648-.158-1.8-.2a.91.91,0,0,0-.4-.051c-1.5-.154-4.887-1.488-5.309-2.976a8.2,8.2,0,0,1-1.132-4.772c.041-.154.264-.41.417-.41a5.377,5.377,0,0,1,.863-.155c1.591,0,3.194-.05,4.785-.05a10.056,10.056,0,0,1,2.165.154,2.759,2.759,0,0,0,.653.051,5.283,5.283,0,0,1,1.471.256,1.157,1.157,0,0,0,.5.052.513.513,0,0,0,.362-.206,5.716,5.716,0,0,0,.255-.564l.563-2.1a17.515,17.515,0,0,1,1.024-3.437c.148-.36-.027-.668-.386-.668-.167.052-.373.052-.591.1a18.212,18.212,0,0,1-4.961.513,3.564,3.564,0,0,1-.835.052,20.965,20.965,0,0,1-2.5.154,8.8,8.8,0,0,1-2.076-.1c-.1,0-.141-.051-.113-.154a13.254,13.254,0,0,1,3.1-4.1c.195-.155.181-.1.377-.257.261-.206.558-.359.766-.565a14.111,14.111,0,0,1,1.689-1.129,13.227,13.227,0,0,1,4.829-1.744c.871,0,1.706-.051,2.528-.051a2.606,2.606,0,0,1,1.1.1c.574.153,1.891.41,2.15.974.113.154.136.257.249.411a2.625,2.625,0,0,0,.239.257c.038.05.089.05.244.05a.388.388,0,0,0,.283-.1c.3-.359.6-.718.853-1.077a2.037,2.037,0,0,0,.333-.668,3.046,3.046,0,0,0,.435-.667,38.391,38.391,0,0,0,2-3.437c.32-.616.324-.822-.145-1.181a4.377,4.377,0,0,0-2.686-1.077,2.78,2.78,0,0,1-.655-.051,16.505,16.505,0,0,0-2.062-.154,14.119,14.119,0,0,0-2.363.2,2.92,2.92,0,0,1-.733.051c-4.669,0-10.622,2.874-14.029,6.979-1.038,1.385-2.05,2.667-2.985,4.053a17.1,17.1,0,0,0-2.635,5.233c-.256.77-.448,1.488-.706,2.258a1.294,1.294,0,0,0-.086.513,15.374,15.374,0,0,0-.2,5.131,11.476,11.476,0,0,0,3.983,7.542,5.051,5.051,0,0,1,.923.77,5.529,5.529,0,0,0,2.44,1.231,15,15,0,0,0,4.4,1.127v0c.756.052,1.474.052,2.127.1h.018l.073,0c.884-.04,5.274-.051,6.1-.049.269-.014,5.334-.111,5.334-.111l.234.01c.871,0,1.744,0,2.732-.051h.617a4.769,4.769,0,0,0,.858.051h2.309a.894.894,0,0,0,.49-.1.836.836,0,0,0,.6-1.282,2.569,2.569,0,0,1-.512-1.54,8.331,8.331,0,0,1,.31-1.539c.21-.975.475-2.155.685-3.13l.646-2.412c.151-.564.186-1.077.388-1.641a7.928,7.928,0,0,1,.913-2.258.526.526,0,0,1,.441-.308h2.72c.155,0,.28.1.263.359.091.616.234,1.232.34,1.8.227.873.289,1.8.466,2.668a10.684,10.684,0,0,0,.4,1.95c.114.154.035.257.045.411a3.86,3.86,0,0,0,.052,1.333c.109,3.233,1.044,5.49,4.682,5.7a6.775,6.775,0,0,0,4.021-1.026,5.056,5.056,0,0,0,1.483-1.9c.148-.359.05-.564-.309-.564-3.575-.257-3.648-4-4.432-6.824-.1-.2-.031-.462-.129-.668-.276-1.077-.384-2.2-.556-3.283-.048-.2.031-.308.3-.36a16.286,16.286,0,0,0,8.165-6.156c.093-.154.251-.36.344-.513.285-.873.813-1.694,1.2-2.566a2.845,2.845,0,0,0,.5-1.488C401.192,32.039,399.63,28.294,393.114,28.294Zm1.545,9.749a6.694,6.694,0,0,1-6.082,5.08c-.565,0-1-.1-1.563-.1a1.734,1.734,0,0,0-.528.051,2.226,2.226,0,0,1-.629.052c-.41,0-.807-.052-1.218-.052l-.014.052h-1.744c-.2,0-.28-.1-.211-.359.155-.77.361-1.54.567-2.31l1.361-5.079c.124-.462.306-.565.706-.719a2.842,2.842,0,0,1,.605-.153c.1,0,.206,0,.243.051a7.352,7.352,0,0,0,1.065.051c1.23,0,2.424-.051,3.67-.1a6.643,6.643,0,0,0,1.012.051C393.9,34.554,395.25,35.837,394.659,38.043Z" fill="#3d302d"/>
      <path id="Path_12" data-name="Path 12" d="M435.5,28.756c.045-.359-.7-.462-.953-.462a1.045,1.045,0,0,0-.452.154.39.39,0,0,1-.258,0,1.864,1.864,0,0,0-.577.052h-.514a4.255,4.255,0,0,0-1.151-.1,16.5,16.5,0,0,0-2.268-.154c-.616,0-1.209.1-1.837.154a.836.836,0,0,0-.772.769,2.723,2.723,0,0,1-.234.872c-.2.36-.448.719-.711,1.129a25.451,25.451,0,0,1-2,2.31c-.315.41-5.331,6.875-5.907,7.49-.079.1-.144.155-.2.155a.378.378,0,0,0-.177-.1c.028-.1-2.4-6.927-2.96-9.441a2.141,2.141,0,0,1-.094-1.18c.013-.051-.038-.051-.024-.1l-.038-.051c.1-.565-.084-1.026.273-1.591.079-.1.055-.2-.11-.359a.148.148,0,0,0-.139-.051c-.155,0-.284.1-.425.051-.051,0-.14-.051-.191-.051-.257,0-.592.1-.848.1h-.36c-.256,0-.527.051-.783.051h-2.258c-.55-.051-1-.1-1.563-.1a1.035,1.035,0,0,0-.447-.051,1.257,1.257,0,0,0-.476.051,2.654,2.654,0,0,0-.732.052c-.27.051-.524.615-.375.82.086.257.342.257.507.411a3.609,3.609,0,0,1,.788,1.077,5.9,5.9,0,0,1,.631,1.283,5.617,5.617,0,0,0,.45,1.385c.311.565.47,1.694.78,2.258a4.2,4.2,0,0,1,.454,1.181c.113.153,1.3,3.18,2.131,5.643a26.393,26.393,0,0,1,.941,3.951,6.267,6.267,0,0,1,.314,1.129,16.37,16.37,0,0,1-.869,3.438,2.567,2.567,0,0,0-.228,1.231l-.042.154c-.065.051-.092.153-.134.308l-.041.154-.105.2a5.054,5.054,0,0,0-.271.821,6.281,6.281,0,0,1-.495,1.847,1.864,1.864,0,0,0-.189.513c-.2.564-.478,1.59-.492,1.642a17.16,17.16,0,0,0-.715,2.668,1.993,1.993,0,0,1-.3.718,2.112,2.112,0,0,1-.346.719c-.2.154-.251.359-.5.513a1.2,1.2,0,0,0-.372.616c-.041.154.035.256.291.256a2.8,2.8,0,0,0,.756.051h1.129c.807.052,1.512.1,2.333.1a12.964,12.964,0,0,0,1.4-.051h.615c.708-.155,1.09-.616.789-1.027a1.455,1.455,0,0,1-.108-1.129,16.029,16.029,0,0,1,.474-2.155l.138-.513c.041-.153.017-.256.058-.41.151-.565.34-1.078.44-1.642a12.881,12.881,0,0,1,.357-1.334c.1-.359.142-.719.251-1.129.231-.667.512-1.334.691-2,.193-.718,1.518-4.515,1.518-4.515a5.172,5.172,0,0,0,.281-.667.653.653,0,0,1,.25-.359,5.441,5.441,0,0,1,.644-.872,22.666,22.666,0,0,1,2.533-3.13,3.672,3.672,0,0,0,.287-.308,11.28,11.28,0,0,0,1.155-1.436,3.542,3.542,0,0,1,.562-.565c.221-.257,1.113-1.283,1.178-1.334.079-.1,1.215-1.283,1.229-1.334.2-.154.172-.257.368-.41a2.517,2.517,0,0,0,.4-.359,13.992,13.992,0,0,1,1.466-1.642c.208-.206.391-.309.5-.514a5.764,5.764,0,0,1,.876-.974c.052,0,.117-.052.145-.154l1.1-1.232a9.4,9.4,0,0,1,1.62-1.642,17.8,17.8,0,0,0,1.756-1.385A.585.585,0,0,0,435.5,28.756Z" fill="#3d302d"/>
      <path id="Path_16" data-name="Path 16" d="M443.039,78c-1.489-.165-2.45-.165-4.068-.22h-.72c-1.682,0-3.254.11-4.935.11h-1.2c-.241,0-.547.055-1.332.11a12.563,12.563,0,0,1-1.44,0c-2.164,0-4.084,0-6.663-.055h-4.087c-1.2,0-2.225.055-3.187.055h-.72c-1.617-.055-2.578-.055-4.26-.055h-18.02c-.962,0-2.1-.055-3.058-.055-1.139-.055-2.1-.055-3.062-.055-.479,0-1.2,0-1.983.055-.482,0-.788.055-1.267.055a8.768,8.768,0,0,1-1.2,0,13.187,13.187,0,0,0-1.855-.055h-3.605c-.961,0-2.164,0-3.3-.055-.124,0-.259-.006-.386-.009a3.948,3.948,0,0,0-.647-.087c-1.376-.169-2.264-.169-3.758-.225h-.666c-1.554,0-3.006.112-4.56.112H361.95c-.205,0-.476.048-1.078.1l-2.552.013c-1.592,0-3.138-.009-5.088-.056h-3.776c-.914,0-1.7.033-2.457.047l-1.642-.006c-1.2-.038-2.078-.041-3.447-.041h-1.825c-.256-.008-.525-.014-.851-.014-1.155-.054-1.393-.054-2.369-.054-.486,0-3.775,0-4.57.054-.167,0-.576.006-1.054.014h-5.478c.5-.014,1.144-.014.515-.014h-1.752c-.7-.016-1.434-.042-2.091-.042-1.052-.056-1.941-.056-2.829-.056-.443,0-1.108,0-1.832.056-.33,0-.585.026-.868.042H315.4a15.12,15.12,0,0,0-1.62-.042h-3.33c-.888,0-2,0-3.049-.056-1.494-.056-3.271-.056-4.825-.056H298.8c-1.051-.057-2.159-.057-3.048-.057-1.758,0-3.576.056-5.391.11-3.594-.007-6.2-.007-7.062-.007l.078.108a7.654,7.654,0,0,0-2.144.633c-.178.169-.576.337-.756.506-.4.169-.742.281-.639.394.131.506-.568.956-1.223,1.574l-2.2,2.081c-.193.393.62.675,2.234.618.665,0,1.672-.112,2.278-.055a15.144,15.144,0,0,0,1.718.055c3.773,0,6.683.057,10.56.169.725-.056,1.227-.112,1.673-.112.888,0,1.878.112,2.989.112h.442c.889,0,1.554,0,2.059-.056s1.168-.056,2.279-.056c1.494.056,2.766.112,4.32.112,3.773,0,7.549,0,11.706.056H343.76a35.946,35.946,0,0,1,3.654.113c.665,0,.829.056,1.495.056.888,0,1.613-.056,2.561-.112s2.056-.057,2.944-.057h.634c.889.018,1.78.029,2.666.052.262-.018.5-.036.71-.052h2.532c.568.026,1.156.052,1.8.052h.479c.962,0,1.682,0,2.228-.054s1.264-.055,2.467-.055c1.617.055,2.993.109,4.675.109,4.084,0,8.171,0,12.669.055h27.152c1.441,0,2.881,0,3.955.11.72,0,.9.054,1.618.054.961,0,1.745-.054,2.771-.109S423,83.8,423.96,83.8h10.332a4.306,4.306,0,0,0,1.4-.164c2.26-.493,3.863-1.041,4.4-1.7a7.7,7.7,0,0,1,1.433-1.425c.708-.6,1.528-1.1,2.237-1.7.193-.165.387-.33.209-.384C444.286,78.161,443.936,78.052,443.039,78Z" fill="#3d302d"/>
    </g>
    <g id="coldbrewlivery">
      <g id="Group_42" data-name="Group 42">
        <path id="Path_38" data-name="Path 38" d="M454.475,64.515c-1.476-.163-2.429-.163-4.031-.217h-.714c-1.667,0-6.1.108-7.766.108l0,.016c-1.1.013-2.029.022-2.522.022H428.769c-.245,0-16.321.054-17.118.108-.731,0-20.766.055-21.432,0-2.2,0-17.808,0-20.426-.054H350.93c-1.217,0-20.126.054-21.1.054H329.1c-1.642-.054-19.434-.054-21.141-.054H289.665c-.976,0-18.945-.054-19.921-.054-1.156-.054-14.744-.054-15.72-.054-.486,0-23.289,0-24.085.054-.49,0-8.157.054-8.644.054-.8.054-8.894,0-9.629,0-.176-.054-11.417-.054-12.393-.054h-15.22c-.976,0-15.86,0-17.013-.054-1.642-.054-18.308-.054-20.015-.054h-18.86c-1.155-.054-21.291-.054-22.267-.054-2.683,0-33.875.108-36.622.162-.732,0-14.386.054-15.117.054s-5.425,0-5.6-.054a3.642,3.642,0,0,0-.912-.054c-.419,0-.781.018-1.117.042.013-.029.008-.047-.029-.047-.454.006-2.869-.1-3.7-.1-2.719.024-5.318-1.847-7.125-3.335a10.028,10.028,0,0,1-2.05-2.617,7.9,7.9,0,0,1-1.129-2.1c-.133-.461-.344-.821-.552-1.385A15.028,15.028,0,0,1,31.487,51c.012-1.385.28-2.771.471-4.823l.447-2.052a16.625,16.625,0,0,1,.756-2.053A17.026,17.026,0,0,1,38.4,35.352a13.947,13.947,0,0,1,1.725-1.078,6.94,6.94,0,0,1,3.518-.872c.462,0,.808.051.961.051a5.706,5.706,0,0,0,.934.154,1.653,1.653,0,0,1,.776.36c.318.153.618.563.875.563.616,0,1.041-.82,1.319-1.282a30.477,30.477,0,0,1,1.79-4,4.245,4.245,0,0,0,.594-1.642.416.416,0,0,0-.133-.462,1.96,1.96,0,0,0-1.145-.513,12.324,12.324,0,0,0-2.422-.154,10.7,10.7,0,0,0-1.3.051,10.7,10.7,0,0,0-1.259.1c-.606.154-1.156.1-1.776.308a5.194,5.194,0,0,1-1.249.257,5.98,5.98,0,0,0-1.327.359c-1.331.564-2.523,1.18-3.779,1.847a9.316,9.316,0,0,0-1.181.769,20.927,20.927,0,0,0-3.048,2.566c-.561.564-1.071,1.129-1.685,1.693-.065.052-.143.154-.352.359C28.769,36.634,26.7,39.2,26.1,41.406a3.349,3.349,0,0,1-.254.565c-.1.359-.267.615-.364.974l-.935,3.489a23.006,23.006,0,0,0,.435,12.93c.331.873.856,1.591,1.252,2.412a.277.277,0,0,0,.151.2,18.387,18.387,0,0,0,2.069,2.925,19.571,19.571,0,0,0,3.35,2.873,3.18,3.18,0,0,1,.837.513c.66.717,2.991,1.254,4.358,1.39a18,18,0,0,0,3.782.38c.731,0,1.838-.108,2.5-.054.422.054,10.612.054,11.347.054,4.145,0,26.337.054,30.6.162.795-.054,9.756-.108,10.245-.108.976,0,11.523.108,12.743.108h5.742c.976,0,15.37,0,15.925-.054s16-.054,17.218-.054c1.641.054,37.723.108,39.43.108,4.145,0,49.284,0,53.85.054H326.8c1.462,0,2.924,0,4.014.108.731,0,18.779.054,19.51.054.976,0,16.486-.054,17.528-.108s15.922-.054,16.9-.054h55.681c.465.016,1.434,0,2.492-.033l0,.021c.714,0,3.48-.055,3.846-.163,2.241-.488,4.24-1.031,4.769-1.682a7.627,7.627,0,0,1,1.421-1.411c.7-.6,1.515-1.084,2.217-1.681.191-.163.383-.326.207-.38C455.712,64.677,455.364,64.569,454.475,64.515Z" fill="#e9e4dc"/>
        <path id="Path_20" data-name="Path 20" d="M76.1,33.658a15.829,15.829,0,0,0-1.592-4.207A5.864,5.864,0,0,0,73,27.809a7.611,7.611,0,0,0-3.867-1.077,7.2,7.2,0,0,0-1.5-.154,8.62,8.62,0,0,0-3.011.513,17.165,17.165,0,0,0-7.894,5.336A7.107,7.107,0,0,0,55.2,34.48c-.494,1.077-1.076,2.1-1.556,3.13a9.361,9.361,0,0,0-.989,2.924,18.276,18.276,0,0,0,.183,6.978c.054.564.354.975.459,1.539-.041.154.061.154.071.308.414.564.817.975,1.23,1.539a2.128,2.128,0,0,0,.506.41c.29.257.646.463.936.719a6.552,6.552,0,0,0,4.326,1.282,8.32,8.32,0,0,0,1.529-.153L62.709,53c3.917-.256,8.056-3.643,10.363-7.081a15.635,15.635,0,0,0,2.067-3.694,8.808,8.808,0,0,0,.873-2.873l.192-.719c.025-.666.218-1.385.242-2.052A28.6,28.6,0,0,0,76.1,33.658Zm-6.236,5.08-.508,1.9a11.088,11.088,0,0,1-3.328,5.337,5.985,5.985,0,0,1-3.556,1.59,3.794,3.794,0,0,1-1.635-.41c-2.2-1.539-2.275-4.721-1.505-7.594a8.372,8.372,0,0,1,1.3-3.13A9,9,0,0,1,64.8,32.376a6.045,6.045,0,0,1,1.865-.257,6.255,6.255,0,0,0,.971.206c.154,0,.116-.052.271-.052.051,0,.088.052.163.154l.3.411A6.585,6.585,0,0,1,69.865,38.738Z" fill="#e9e4dc"/>
        <path id="Path_21" data-name="Path 21" d="M70.287,56.7a2.505,2.505,0,0,0-.868-.2h-.154c-.359,0-.695.1-1.054.1h-.256c-.052,0-.117.052-.285.1-.153,0-.167.052-.307,0a14.122,14.122,0,0,1-1.423-.051h-.873c-.256,0-.475.051-.68.051h-.154a5.365,5.365,0,0,0-.91-.051H59.475c-.2,0-.448-.052-.653-.052a3,3,0,0,0-.654-.051,1.408,1.408,0,0,0-.424.051c-.1,0-.168.052-.27.052-.168.051-.1,0-.257,0-.037-.052-.191-.052-.4-.052h-.77a3.463,3.463,0,0,1-.7-.051,8.059,8.059,0,0,0-1.115-.051h-.872a3.388,3.388,0,0,0-.7-.052c-.565,0-1.157.1-1.735.154-.154,0-.373.052-.527.052s-.257,0-.294-.052-.089-.051-.191-.051c-.462,0-.661.36-.846.667-.042.154-.134.308-.175.462-.093.154-.172.256-.148.359a4.533,4.533,0,0,1-.282,1.437l-.509,1.9c-.045.359.143.616.516.564.154,0,.387-.1.527-.05a.922.922,0,0,0,.4.05,23.893,23.893,0,0,1,2.678.154,1.592,1.592,0,0,1,.387-.1c.205,0,.434.1.69.1h.1a1.254,1.254,0,0,0,.475-.051,1.415,1.415,0,0,1,.527-.051,6.466,6.466,0,0,0,1,.1c.872,0,1.745,0,2.7.052h5.8a2.172,2.172,0,0,1,.844.1c.154,0,.192.051.346.051a2.48,2.48,0,0,0,.592-.1,3.12,3.12,0,0,1,.68-.051H68.42a.324.324,0,0,0,.3-.154,2.949,2.949,0,0,0,.939-1.59,11.807,11.807,0,0,1,.306-1.335c.151-.564.326-1.026.477-1.59.042-.154.083-.308.045-.359C70.554,56.85,70.479,56.748,70.287,56.7Z" fill="#e9e4dc"/>
        <path id="Path_22" data-name="Path 22" d="M75.18,62.289a4.785,4.785,0,0,0,.859.051h7.389a2.644,2.644,0,0,0,.9-.1,6.19,6.19,0,0,1,1.361-.1h5.029a9.593,9.593,0,0,1,2.114.154h.41a5.259,5.259,0,0,1,2.39.462,5.3,5.3,0,0,1,.626.154.834.834,0,0,0,.674-.411c.12-.256.278-.461.426-.821.61-1.129,2.226-4.669,2.935-5.593.1-.359-.091-.615-.362-.564a15.467,15.467,0,0,1-3.962.616h-3.9a10.193,10.193,0,0,0-1.772.1c-.257,0-.49.1-.746.1h-.718a2.8,2.8,0,0,0-.756-.051,1.734,1.734,0,0,0-.578.051H85.19c-.154,0-.257,0-.3-.051A1.011,1.011,0,0,1,84,55.208a1.623,1.623,0,0,1,.1-.564c.113-.616.19-1.283.317-1.95.124-.462,1.224-4.566,1.354-4.669a9.859,9.859,0,0,0,.58-1.591c.234-.872.481-1.795.767-2.668a5.023,5.023,0,0,1,.487-1.436,3.027,3.027,0,0,0,.344-1.283,10.238,10.238,0,0,1,.227-1.232c.179-.667.408-1.333.537-2a11.355,11.355,0,0,0,.665-2.1,5.062,5.062,0,0,0,.547-1.847,3.977,3.977,0,0,1,.522-1.95l.083-.308a4.583,4.583,0,0,1,.83-1.95,4.292,4.292,0,0,0,.758-1.488c.041-.154,0-.2-.1-.2a2.312,2.312,0,0,0-1.047-.308.732.732,0,0,0-.372.052.751.751,0,0,1-.373.051h-.36a1.035,1.035,0,0,0-.447-.051H86.345a3.976,3.976,0,0,0-1.4.256,1.171,1.171,0,0,0-.6.719,2.375,2.375,0,0,1,.078.667A8.965,8.965,0,0,1,84,31.863c-.234.872-.5,1.693-.739,2.565-.367,1.181-.591,2.206-1.061,3.386a2.769,2.769,0,0,0-.234.873,6.889,6.889,0,0,1-.261.974c-.367,1.181-.707,2.258-1.024,3.438-.165.616-.343,1.283-.574,1.95a9.9,9.9,0,0,0-.587,2l-.042.154a3.962,3.962,0,0,0-.432,1.231,2.791,2.791,0,0,0-.241,1.283A4.13,4.13,0,0,0,78.359,51a9.218,9.218,0,0,0-.251,1.129,15.559,15.559,0,0,1-.695,2.976c-.175.461-.2.923-.371,1.385a7.693,7.693,0,0,0-.66,1.693,11.168,11.168,0,0,1-1.337,3.079c-.042.154-.121.257-.162.41C74.764,61.929,74.924,62.289,75.18,62.289Z" fill="#e9e4dc"/>
        <path id="Path_23" data-name="Path 23" d="M136.649,36.275a.128.128,0,0,0-.024-.1,7.365,7.365,0,0,0-1.429-3.283,8.792,8.792,0,0,1-.929-1.129c-1.505-2.617-4.9-4.31-8.166-4.566-2.575-.155-5.127-.206-7.744-.206-.667,0-1.3.051-2.271.051H114.7a12.238,12.238,0,0,0-2.686.257,1.016,1.016,0,0,0-.552.718c.038.052.024.1.034.257a5.975,5.975,0,0,1,.062,2.257c-.326,1.027-.2,2.1-.633,3.13a.8.8,0,0,0-.072.462,15.023,15.023,0,0,1-.682,2.925c-.055.205-.161.41-.2.565a33.774,33.774,0,0,1-1,3.745A5.287,5.287,0,0,1,108.372,43c-.064.051-.078.1-.119.256-.128.667-.344,1.283-.523,1.95-.334,1.437-.719,2.873-1.052,4.31-.22.821-.426,1.591-.581,2.36a24.126,24.126,0,0,1-.6,2.617,21.959,21.959,0,0,0-.786,2.36,15.942,15.942,0,0,1-1.725,3.951,2.676,2.676,0,0,0-.529.821,1.187,1.187,0,0,0,.007.359.391.391,0,0,0,.393.257h.564a7.757,7.757,0,0,1,1.851-.206h.564c1.064.051,2.128.1,3.14.154h.565c1.809-.051,3.53-.154,5.326-.154a3.745,3.745,0,0,0,1.272-.153c.667,0,1.4-.257,2.019-.257a1.178,1.178,0,0,1,.5.051c.154,0,.271-.051.424-.051.863-.154,1.743-.565,2.6-.718a17.115,17.115,0,0,0,7.285-4.978.8.8,0,0,1,.223-.256,17.823,17.823,0,0,0,3.576-4.156,17.07,17.07,0,0,0,2.4-3.8,15.9,15.9,0,0,0,1.391-3.848c.206-.77.783-2.925.511-3.438A8.587,8.587,0,0,0,136.649,36.275Zm-6.7,5.49a13.264,13.264,0,0,1-.581,2.361,13.01,13.01,0,0,1-1.795,4.207,2.506,2.506,0,0,0-.473.615,9.792,9.792,0,0,1-1.377,1.694c-2.716,2.667-6.034,5.284-9.574,5.284a2.072,2.072,0,0,0-.746.1,2.283,2.283,0,0,1-.63.051,1.984,1.984,0,0,1-.6-.051c-.256,0-.578.051-.834.051h-.821c-.36,0-.719,0-.776-.359a2.347,2.347,0,0,1,.127-.667l1.457-5.438c.22-.822.492-1.642.712-2.463.206-.77.306-1.334.563-2.1.162-.41.169-.821.33-1.231a12.313,12.313,0,0,1,.484-1.232,1.883,1.883,0,0,0,.193-.718,5.942,5.942,0,0,1,.5-2.053c.147-.359.215-.615.363-.974.261-.975.574-1.95.784-2.925.151-.564.5-.923.5-1.488.041-.154.172-.257.264-.411a.861.861,0,0,1,.544-.307h.308c.411,0,.835-.052,1.194-.052a1.435,1.435,0,0,1,.5.052c.1,0,.14.051.192.051h.564c.154,0,.373-.051.527-.051H122c3.779.257,7.01,1.8,7.727,5.438a12.747,12.747,0,0,1,.248,1.95A2.982,2.982,0,0,1,129.945,41.765Z" fill="#e9e4dc"/>
        <path id="Path_24" data-name="Path 24" d="M182.492,45.973a4.213,4.213,0,0,0-1.041-2.053,6.114,6.114,0,0,0-1-.872,6.654,6.654,0,0,0-1.052-.667,4.152,4.152,0,0,0-1.177-.205c-.051,0-.345-.051-.331-.1l.041-.154c.065-.051.144-.154.209-.2a13.688,13.688,0,0,0,2.98-3.079c.092-.153.158-.2.25-.359.562-.564.9-2.206,1.218-2.822a4.387,4.387,0,0,0,.55-2.052c0-.564-.009-.923-.012-1.488a5.07,5.07,0,0,0-4.748-4.875,23.381,23.381,0,0,1-2.7-.256c-.256,0-.55-.051-.806-.051a3.53,3.53,0,0,0-1.287.2,1.906,1.906,0,0,1-.578.051c-.564,0-.989.051-1.553.051-.359,0-.8.1-1.157.1-.153,0-.191-.051-.345-.051-.606.154-.974,0-1.58.154h-1.9a7.186,7.186,0,0,0-1.039.051c-.873,0-1.68-.051-2.655-.051a6.416,6.416,0,0,0-.848.1c-.154,0-.39.307-.432.461.01.154-.068.257-.059.411.044.41.075.872.119,1.282a4.878,4.878,0,0,1-.091,1.488l-.784,2.925a6.048,6.048,0,0,0-.515,1.539c-.241,1.283-.52,2.515-.85,3.746a5.293,5.293,0,0,1-.279,1.231,2.772,2.772,0,0,0-.33,1.231,6.67,6.67,0,0,0-.49,1.642c-.2.565-.3,1.129-.506,1.694a2.811,2.811,0,0,1-.288,1.077c-.482,1.8-1.028,3.643-1.509,5.439-.615,2.1-1.024,4.207-1.728,6.26a4.468,4.468,0,0,1-.961,2.052,8.074,8.074,0,0,1-1.038,1.385,3.467,3.467,0,0,1-.251.359,1,1,0,0,0-.017.257.6.6,0,0,0,.455.411c.666,0,1.269.051,1.935.051h4.208c2.514,0,5.029,0,7.631.051a6.631,6.631,0,0,1,1.768.1c.038.052.141.052.295.052a.443.443,0,0,0,.27-.052,10.079,10.079,0,0,1,2.6-.718,11.682,11.682,0,0,0,1.845-.564c1.19-.616,2.433-1.232,3.624-1.847a8.91,8.91,0,0,0,2.719-2.1,12.75,12.75,0,0,0,1.6-1.949,11.643,11.643,0,0,0,1.08-2.31,11.2,11.2,0,0,0,.862-3.027,4.977,4.977,0,0,0,.071-1.8C182.736,47.358,182.645,46.742,182.492,45.973Zm-7.148,6.567c-1.435,2.1-4.214,3.284-6.517,3.643a22.9,22.9,0,0,1-3.711.256c-.578.052-1.194.052-1.81.052-.564,0-1.064-.052-1.615-.1-.359,0-.365-.36-.3-.616.525-1.385.794-2.771,1.229-4.208.316-1.18.506-2.462.888-3.694.055-.206.175-.462.23-.667.092-.154.195-.154.261-.2a19.516,19.516,0,0,1,2.5-.154,2.577,2.577,0,0,1,.705.051,6.519,6.519,0,0,0,.989-.051,12.8,12.8,0,0,1,2.4-.154,10.935,10.935,0,0,1,2.993.513,4.287,4.287,0,0,1,2.289,1.8,1.572,1.572,0,0,1,.269.718A3.771,3.771,0,0,1,175.344,52.54Zm.938-16.522c-.147.36-.361,1.54-.508,1.9-1.07,2.463-3.92,2.566-5.921,2.566-1.091.051-2.169.051-3.246.051a1.176,1.176,0,0,1-.5-.051c-.141-.052-.164-.154-.151-.206-.037-.051,0-.205.059-.41l.742-2.771c.261-.975.682-2.925.943-3.9a.535.535,0,0,1,.455-.359h.41a2.861,2.861,0,0,0,.732-.052h.36a.542.542,0,0,0,.321-.051,6.867,6.867,0,0,1,1-.1,8.644,8.644,0,0,1,1.1.1c.257,0,.448.051.807.051a7.748,7.748,0,0,0,.848-.1,1.392,1.392,0,0,1,.527-.052,3,3,0,0,0,.678.154,1.725,1.725,0,0,1,1.216.821A2.392,2.392,0,0,1,176.282,36.018Z" fill="#e9e4dc"/>
        <path id="Path_25" data-name="Path 25" d="M206.9,27.142h-6.157a2.993,2.993,0,0,0-.654-.051c-.988.051-1.963.051-2.938.051h-1.231a4.673,4.673,0,0,0-1.892.359c-.517.206-.754.513-.607.924a3.066,3.066,0,0,1-.224,1.8,2.3,2.3,0,0,0-.156.769c-.1.36-.1.77-.213,1.18-.451,2.258-1.159,4.516-1.8,6.722-.2.564-.261.975-.464,1.539A24.81,24.81,0,0,0,189.769,43c-.486,2-1.083,3.848-1.465,5.849-.452,2.258-1.392,4.618-1.843,6.875a26.239,26.239,0,0,1-.842,3.335c-.23.667-.214,1.181-.929,1.745a5.338,5.338,0,0,0-.706.719c-.222.256-.175.461.054.563a1.149,1.149,0,0,0,.766.206c.873,0,1.745,0,2.734-.051h.615a4.768,4.768,0,0,0,.858.051h2.31a.891.891,0,0,0,.489-.1.836.836,0,0,0,.6-1.282,2.575,2.575,0,0,1-.511-1.54,8.247,8.247,0,0,1,.309-1.539c.211-.975.475-2.155.685-3.13l.646-2.412c.152-.564.187-1.077.39-1.641a7.925,7.925,0,0,1,.912-2.258.526.526,0,0,1,.442-.308H198c.154,0,.28.1.263.359.092.616.234,1.232.34,1.8.228.873.288,1.8.465,2.668a10.6,10.6,0,0,0,.4,1.95c.113.154.034.257.044.411a3.884,3.884,0,0,0,.053,1.333c.109,3.233,1.043,5.49,4.682,5.7a6.775,6.775,0,0,0,4.021-1.026,5.066,5.066,0,0,0,1.483-1.9c.148-.359.049-.564-.31-.564-3.575-.257-3.648-4-4.431-6.824-.1-.205-.03-.462-.129-.668-.276-1.077-.384-2.2-.557-3.283-.048-.205.031-.308.3-.36a16.286,16.286,0,0,0,8.167-6.156c.092-.154.25-.36.342-.513.285-.873.813-1.694,1.2-2.566a2.87,2.87,0,0,0,.5-1.488C214.973,30.887,213.411,27.142,206.9,27.142Zm1.544,9.749a6.7,6.7,0,0,1-6.082,5.08c-.564,0-1-.1-1.563-.1a1.717,1.717,0,0,0-.526.051,2.244,2.244,0,0,1-.63.052c-.411,0-.808-.052-1.217-.052l-.014.052h-1.745c-.206,0-.28-.1-.212-.359.155-.77.361-1.54.568-2.31l1.361-5.079c.123-.462.305-.565.705-.719a2.82,2.82,0,0,1,.606-.153c.1,0,.205,0,.243.051a7.338,7.338,0,0,0,1.064.051c1.231,0,2.425-.051,3.67-.1a6.637,6.637,0,0,0,1.012.051C207.68,33.4,209.03,34.685,208.439,36.891Z" fill="#e9e4dc"/>
        <path id="Path_26" data-name="Path 26" d="M227.83,37.353c.26-.206.559-.359.767-.565a13.957,13.957,0,0,1,1.689-1.129,13.222,13.222,0,0,1,4.828-1.744c.872,0,1.707-.051,2.528-.051a2.611,2.611,0,0,1,1.1.1c.574.153,1.89.41,2.149.974.114.154.136.257.249.411a2.911,2.911,0,0,0,.239.257c.038.05.09.05.243.05a.394.394,0,0,0,.285-.1c.3-.359.6-.718.852-1.077a2.041,2.041,0,0,0,.334-.668,3.038,3.038,0,0,0,.434-.667,38.658,38.658,0,0,0,2-3.437c.319-.616.323-.822-.146-1.181A4.375,4.375,0,0,0,242.7,27.45a2.784,2.784,0,0,1-.655-.051,16.491,16.491,0,0,0-2.061-.154,14.111,14.111,0,0,0-2.363.2,2.933,2.933,0,0,1-.734.051c-4.669,0-10.621,2.874-14.029,6.979-1.038,1.385-2.05,2.667-2.985,4.053a17.094,17.094,0,0,0-2.634,5.233c-.256.77-.449,1.489-.706,2.258a1.3,1.3,0,0,0-.087.513,15.4,15.4,0,0,0-.2,5.131,11.471,11.471,0,0,0,3.982,7.542,5.017,5.017,0,0,1,.923.77,5.529,5.529,0,0,0,2.44,1.231,15.037,15.037,0,0,0,4.418,1.129c.756.052,1.474.052,2.128.1.783-.05,1.4-.05,2.08-.1a10.925,10.925,0,0,0,3.583-.923,2.027,2.027,0,0,0,1.466-1.642c0-.206.021-.462.024-.667a11.914,11.914,0,0,1,.15-1.9c.151-.564.239-2.617-.428-2.617a.626.626,0,0,0-.466.205c-.065.052-.143.155-.338.309a2.843,2.843,0,0,1-1.76.82,14.8,14.8,0,0,1-2.955.308,6.963,6.963,0,0,1-1.9-.205.9.9,0,0,0-.4-.051c-1.5-.154-4.887-1.488-5.31-2.976a8.2,8.2,0,0,1-1.132-4.772c.041-.154.264-.41.417-.41a5.269,5.269,0,0,1,.863-.155c1.591,0,3.195-.05,4.786-.05a10.13,10.13,0,0,1,2.165.153,2.707,2.707,0,0,0,.653.052,5.283,5.283,0,0,1,1.471.256,1.149,1.149,0,0,0,.5.052.513.513,0,0,0,.363-.206,5.894,5.894,0,0,0,.254-.564l.564-2.1a17.437,17.437,0,0,1,1.024-3.438c.148-.36-.027-.668-.387-.668-.166.052-.373.052-.591.1a18.216,18.216,0,0,1-4.961.513,3.563,3.563,0,0,1-.835.052,20.939,20.939,0,0,1-2.5.154,8.8,8.8,0,0,1-2.075-.1c-.1,0-.141-.051-.114-.154a13.268,13.268,0,0,1,3.1-4.1C227.648,37.455,227.635,37.507,227.83,37.353Z" fill="#e9e4dc"/>
        <path id="Path_27" data-name="Path 27" d="M250.143,28.066c.113.154.427.513.424.718.1.2-.009.411-.012.616.058.359-.258.769-.11,1.18a1.257,1.257,0,0,1-.067.821,18.928,18.928,0,0,0-.133,2.411,11.914,11.914,0,0,1-.125,2l.019,1.078c0,.564-.122,1.026-.091,1.488-.107.975-.174,1.795-.229,2.77l-.041.154a10.7,10.7,0,0,0-.229,1.232c-.024.667-.189,1.283-.213,1.95-.069.256-.237,2.411-.306,2.668a3.035,3.035,0,0,1-.058,1.18,8.27,8.27,0,0,0-.119,1.59c-.014.052.024.1.01.154a1.6,1.6,0,0,1,.019.308c-.024.667-.189,1.283-.2,1.9s.043,1.18.031,1.795c-.072.462-.261.975.053,1.334l-.055.206c-.055.205-.175.461.041.615l-.027.1c-.042.154-.107.2-.148.359,0,.565-.136,1.078-.132,1.642a.313.313,0,0,1,.048.2,2.47,2.47,0,0,1-.023.462,2.153,2.153,0,0,1-.158.975c-.2.564-.288,1.077-.491,1.642s-.066.82.395.82h.1a2.771,2.771,0,0,0,.8-.1,5.977,5.977,0,0,1,.914-.154,1.94,1.94,0,0,1,.485.1,3.386,3.386,0,0,0,.589.1,3.119,3.119,0,0,0,.489-.1h.307a8.067,8.067,0,0,0,1.115.051c.155,0,.373-.051.528-.051.1,0,.2,0,.242.051a.147.147,0,0,0,.258,0,1.587,1.587,0,0,1,.386-.1,1.943,1.943,0,0,1,.485.1,1.871,1.871,0,0,0,.538.1.7.7,0,0,0,.464-.2h.257c.681-.052,1.02-.359.9-.873a4.9,4.9,0,0,1,.3-1.693,5.3,5.3,0,0,1,.577-1.385c.36-.77.562-1.334.923-2.1.3-.564.507-1.129.813-1.693s.456-1.129.761-1.694a44.376,44.376,0,0,1,2.25-4.566c.2-.359,2.78-6.927,2.9-7.388a.566.566,0,0,1,.157-.206.315.315,0,0,1,.048.206c-.1.359-.977,6.516-.97,6.875-.045.359-.053.77-.1,1.129a3.4,3.4,0,0,1,.023.872c-.045.359-.2.564-.117.821.113.154.058.359.068.513a1.148,1.148,0,0,1-.1.77c-.014.051.038.051,0,.205.01.154.072.308.082.462-.073.461-.094.923-.152,1.334-.1.565-.158.974-.231,1.437-.046.359-.012.615-.056.974.058.359-.131.873-.074,1.232,0,.205-.11.41,0,.564a3.888,3.888,0,0,1-.026,1.437,5.12,5.12,0,0,1-.4,1.693c-.093.154-.041.154-.055.205a2.054,2.054,0,0,0,.27.718c.036.052.125.1.163.155.089.051.127.1.229.1h1.026a8.705,8.705,0,0,0,1.087.154h.155a.534.534,0,0,1,.321-.052c.257,0,.449.052.653.052h.719a2.557,2.557,0,0,1,.541-.1c.1,0,.2,0,.242.05s.141.052.308,0c.219-.05.386-.1.438-.1a2.271,2.271,0,0,1,.435.1.664.664,0,0,0,.345.052,3.021,3.021,0,0,0,1.1-.256c.462,0,.67-.2.678-.616a4.365,4.365,0,0,1,.162-1.181,3.062,3.062,0,0,1,.155-.769c.068-.256.24-.513.295-.718.278-.462.3-.924.562-1.334l1.562-3.335c.277-.462.349-.924.655-1.489a8.343,8.343,0,0,1,.627-1.385c.361-.769.717-1.334,1.078-2.1.3-.563.531-1.026.836-1.59.042-.154.107-.2.148-.359l.442-1.078c.148-.359.371-.616.517-.975.265-.41.426-.82.689-1.231l.681-1.385c.277-.462.5-.924.78-1.386.319-.615.55-1.282.933-1.949.464-.77.837-1.591,1.263-2.412.277-.461.414-.974.693-1.436s.606-.924.883-1.386c.593-.872,1.218-2.052,1.811-2.924.383-.668,1.055-1.642,1.476-2.258a.939.939,0,0,1,.3-.359c.557-.359,1.385-.77.921-1.334a.54.54,0,0,0-.383-.1,1.1,1.1,0,0,0-.425.052,1.485,1.485,0,0,0-.28-.1c-.153,0-.117.051-.27.051h-.821c-.052,0-.139-.051-.191-.051h-1.694a4.685,4.685,0,0,0-.806-.052c-.579.052-1,.1-1.567.1a8.756,8.756,0,0,0-1.119.154c-.154,0-.335.1-.558.359a1.267,1.267,0,0,0-.323.822,17.261,17.261,0,0,1-1.461,3.539c-.041.154-.437.668-.478.822-.118.256-.151.564-.27.82a11.049,11.049,0,0,0-1.105,2.207c-.013.051-.079.1-.092.153-.263.411-.579.822-.843,1.232-.25.36-.257.769-.522,1.18-.414.975-.854,1.847-1.32,2.822-.055.205-1.146,2.361-1.146,2.361-.013.05-.027.1-.079.1-.29.513-1.07,3.232-1.376,3.8-.121.256-.227.462-.346.718a8.706,8.706,0,0,0-.464.77c-.318.616-.469,1.18-.788,1.795a2.409,2.409,0,0,1-.305.565c-.065.051-.13.1-.144.154a.163.163,0,0,1-.01-.154c0-.565-.033-1.026-.036-1.59.053-.77.115-1.386.166-2.155.067-.822.72-3.643.787-4.465.052-.769.039-1.488.105-2.308.045-.359.231-.668.145-.924a8.3,8.3,0,0,1,.067-1.59c0-.565.122-1.027.118-1.591a4.539,4.539,0,0,0,.06-1.18,33.28,33.28,0,0,1,1.025-6.311,2.054,2.054,0,0,1,.335-.872,1.418,1.418,0,0,0,.354-1.129.431.431,0,0,0-.454-.41,1.242,1.242,0,0,1-.271.05,5.647,5.647,0,0,1-1.579.154h-2.361a6.382,6.382,0,0,0-.988.052.151.151,0,0,0-.141-.052,9.621,9.621,0,0,0-1.217-.051h-.411a1.253,1.253,0,0,0-.759.154.654.654,0,0,0-.309.77,2.339,2.339,0,0,1,.223,1.077c-.014.052-.014.052.024.1-.148.359-.332.667-.48,1.026a2.962,2.962,0,0,1-.127.667c-.278.462-.785,1.591-1.063,2.053a13.968,13.968,0,0,0-1.074,2.668c-.162.41-.425.821-.586,1.231a14.757,14.757,0,0,1-1.105,2.206c-.3.565-.4,1.129-.71,1.693-.356.565-.368,1.181-.878,1.745a.28.28,0,0,0-.12.257,2.447,2.447,0,0,1-.48,1.025c-.093.155-.2.36-.292.514-.3.564-2.586,6.208-2.628,6.362-.092.154-.6,1.283-.9,1.848l-.028.1-.075-.1c.041-.155.106-.206.1-.36-.191-.821.978-7.286,1-7.953,0-.205.059-.411.064-.616.013-.82.08-1.641.08-2.411,0-.564.136-1.077.133-1.642a1.294,1.294,0,0,1,.086-.513c.01-.616.125-1.232.084-1.847a10.857,10.857,0,0,0,.106-2.309c.011-.616.111-1.18.122-1.8a14.669,14.669,0,0,0,.181-2.206c.055-.206-.058-.359-.017-.513.057-.975.761-1.694.94-2.36.151-.565-.347-.616-.809-.616-.564,0-.746.1-1.1.1-.155,0-.243-.052-.4-.052h-1.334a6.881,6.881,0,0,0-1,.1c-.205,0-.475.051-.681.051-.41,0-1.05-.1-1.46-.1-.153,0-.346-.052-.5-.052C250.206,27.45,250.007,27.809,250.143,28.066Z" fill="#e9e4dc"/>
        <path id="Path_28" data-name="Path 28" d="M285.093,62.289a4.775,4.775,0,0,0,.859.051h7.388a2.639,2.639,0,0,0,.9-.1,6.207,6.207,0,0,1,1.363-.1h5.028a9.579,9.579,0,0,1,2.113.154h.411a5.259,5.259,0,0,1,2.39.462,5.35,5.35,0,0,1,.626.154.838.838,0,0,0,.675-.411c.12-.256.277-.461.424-.821.611-1.129,2.226-4.669,2.936-5.593.1-.359-.092-.615-.361-.564a15.481,15.481,0,0,1-3.963.616h-3.9a10.2,10.2,0,0,0-1.773.1c-.256,0-.488.1-.746.1h-.718a2.793,2.793,0,0,0-.756-.051,1.74,1.74,0,0,0-.578.051H295.1c-.153,0-.256,0-.294-.051a1.013,1.013,0,0,1-.892-1.078,1.691,1.691,0,0,1,.1-.564c.113-.616.189-1.283.316-1.95.124-.462,1.224-4.566,1.354-4.669a9.851,9.851,0,0,0,.579-1.591c.234-.872.482-1.795.767-2.668a5.023,5.023,0,0,1,.488-1.436,2.983,2.983,0,0,0,.343-1.283,10.44,10.44,0,0,1,.227-1.232c.179-.667.409-1.333.537-2a11.364,11.364,0,0,0,.666-2.1,5.081,5.081,0,0,0,.547-1.847,3.956,3.956,0,0,1,.522-1.95l.083-.308a4.571,4.571,0,0,1,.83-1.95,4.309,4.309,0,0,0,.758-1.488c.041-.154,0-.2-.1-.2a2.311,2.311,0,0,0-1.045-.308.73.73,0,0,0-.373.052.749.749,0,0,1-.373.051h-.36a1.035,1.035,0,0,0-.447-.051h-3.08a3.974,3.974,0,0,0-1.4.256,1.174,1.174,0,0,0-.6.719,2.332,2.332,0,0,1,.077.667,8.929,8.929,0,0,1-.416,2.514c-.233.872-.505,1.693-.739,2.565-.367,1.181-.591,2.206-1.061,3.386a2.742,2.742,0,0,0-.234.873,6.889,6.889,0,0,1-.261.974c-.368,1.181-.708,2.258-1.024,3.438-.165.616-.344,1.283-.573,1.95a9.839,9.839,0,0,0-.588,2l-.041.154a3.915,3.915,0,0,0-.433,1.231,2.778,2.778,0,0,0-.241,1.283A4.13,4.13,0,0,0,288.272,51a9.036,9.036,0,0,0-.251,1.129,15.633,15.633,0,0,1-.7,2.976c-.175.461-.2.923-.371,1.385a7.692,7.692,0,0,0-.66,1.693,11.169,11.169,0,0,1-1.337,3.079c-.041.154-.12.257-.161.41C284.677,61.929,284.836,62.289,285.093,62.289Z" fill="#e9e4dc"/>
        <path id="Path_29" data-name="Path 29" d="M310.4,27.174c-.154,0-.267.039-.42.039-.268.039-.557.352-.456.547a.346.346,0,0,0,.133.274c.378.313.313.743.249,1.173-.237.313-.157.586-.23.86a4.7,4.7,0,0,1-.274,1.407,2.989,2.989,0,0,0-.219.625c-.106.587-.232,1.056-.389,1.642-.1.587-.3,1.134-.409,1.72l-.44,1.642a7.165,7.165,0,0,1-.461,1.72,3.757,3.757,0,0,0-.147.743,4.121,4.121,0,0,1-.108.782l-.66,2.463c-.231,1.055-.483,1.993-.766,3.049a15.21,15.21,0,0,1-.761,2.463c-.251.742-.532,1.407-.731,2.15a6.377,6.377,0,0,1-1.717,2.58.3.3,0,0,0,.171.508c.4.039.8.078,1.16.078a4.048,4.048,0,0,0,.78-.039.665.665,0,0,1,.318-.039h.1a9.43,9.43,0,0,0,1.825.078h.565a5.223,5.223,0,0,0,1.582-.157c.184-.117.369-.038.585-.077h.718c.165-.04.113-.04.277-.078.154,0,.372-.235.352-.353s0-.195-.019-.312c-.161-.548-.056-1.134-.176-1.642-.122-.313.157-.587.282-.86l.021-.078c-.091-.43.158-.782.273-1.212a9.265,9.265,0,0,1,.212-1.173c.418-1.368.733-2.736,1.1-4.1a7.524,7.524,0,0,0,.338-1.838,9.1,9.1,0,0,1,.277-1.6c.252-1.134.545-2.228.849-3.362.283-1.055.534-1.993.868-3.049a4.169,4.169,0,0,1,.583-1.6c.186-.118.125-.274.167-.43a10.4,10.4,0,0,0,.365-1.173A7.336,7.336,0,0,1,317.514,28c.093-.156.176-.274.187-.313.238-.313-.15-.782-.571-.743a6.029,6.029,0,0,0-.832.039,20.543,20.543,0,0,1-3.438.2Z" fill="#e9e4dc"/>
        <path id="Path_30" data-name="Path 30" d="M349.585,27.091a1.944,1.944,0,0,0-.6-.052c-.629.052-1.206.1-1.771.1-.36,0-.7-.051-1.116-.051a6.5,6.5,0,0,1-.988.051,6.807,6.807,0,0,1-1.843-.2h-.1a.807.807,0,0,0-.887.821,3.949,3.949,0,0,1-.186,1.078,17.367,17.367,0,0,1-1.677,3.386q-.395.615-.792,1.231a30.362,30.362,0,0,0-1.609,3.13c-.517.975-1.048,2-1.713,3.335-.251.359-.412.77-.675,1.18-.251.359-.293.514-.542.873a50.253,50.253,0,0,1-2.562,4.771c-.306.564-.555.923-.861,1.488-.462.77-1.217,2.822-1.694,3.643l-.318.616c-.014.051-.079.1-.21.205a.306.306,0,0,1-.048-.205c-.036-.052-.009-.154.019-.257.024-.667.235-2.411.232-2.975.016-.822-.137-1.592-.072-2.412a.3.3,0,0,0-.048-.205c-.029-.462-.1-.976-.127-1.437,0-.77.206-1.54.156-2.309.011-.616-.015-1.282-.055-1.9,0-.206-.1-.411-.092-.616a64.884,64.884,0,0,1,.194-9.338l.217-1.386a2.057,2.057,0,0,1,.154-.77c.162-.409.835-.82.779-1.179-.133-.462-1.224-.411-1.789-.411-.858-.051-1.731-.051-2.59-.1h-1.282c-.256,0-.434-.1-.793-.1a.449.449,0,0,0-.27.051,1.1,1.1,0,0,1-.425.052c-.256,0-.5-.052-.756-.052h-.462a.561.561,0,0,0-.622.411,1.793,1.793,0,0,0,.019.308,11.666,11.666,0,0,1,.376,3.386,2.222,2.222,0,0,0-.015.821c0,.564.158,1.9.161,2.462a25.826,25.826,0,0,0,.065,2.823c0,.77.036,1.59.086,2.36,0,.564.06.923.063,1.488.009.154-.082.308.03.461a8.551,8.551,0,0,0,.115,1.488c.053.565-.019,1.027-.016,1.591a1.09,1.09,0,0,0,.1.564c0,.206-.11.411-.01.616a24.95,24.95,0,0,0,.129,2.771c.036.821.008,1.693.031,2.566l.079,2-.044,2.462c-.025.668.074.872.021,1.642a6.132,6.132,0,0,1-.055.975,1.751,1.751,0,0,0-.019,1.026,2.474,2.474,0,0,1-.416,1.745c-.013.051-.065.051-.079.1-.3.359-.182.872.28.872a.509.509,0,0,0,.232-.1,23.082,23.082,0,0,0,3.281.205h2.051a6.288,6.288,0,0,0,1.722-.1h.256a.781.781,0,0,0,.856-.513.591.591,0,0,0-.1-.564c-.01-.154.017-.256.007-.41.251-.359.361-.77.624-1.18.093-.154.251-.36.357-.565.976-1.539,3.97-6.773,4.3-7.44.147-.359.319-.616.439-.872a8.909,8.909,0,0,1,.463-.769c.3-.565.606-.924.912-1.489.263-.41.373-.82.624-1.179.065-.052.13-.1.144-.155a21.593,21.593,0,0,0,1.933-3.386.483.483,0,0,0,.121-.257c.356-.564.685-1.026,1.041-1.59l1.347-2.155c.834-1.386,1.56-2.565,2.392-3.95.279-.463.786-1.592,1.064-2.053a50.919,50.919,0,0,1,3.03-4.413,7.964,7.964,0,0,1,1.192-1.385c.352-.359.229-.667-.232-.667Z" fill="#e9e4dc"/>
        <path id="Path_32" data-name="Path 32" d="M395.058,27.142H388.9a2.993,2.993,0,0,0-.653-.051c-.99.051-1.964.051-2.939.051h-1.232a4.676,4.676,0,0,0-1.892.359c-.517.206-.752.513-.606.924a3.067,3.067,0,0,1-.225,1.8,2.281,2.281,0,0,0-.155.769c-.1.36-.1.77-.213,1.18-.452,2.258-1.159,4.516-1.8,6.722-.2.564-.262.975-.464,1.539A25.092,25.092,0,0,0,377.931,43c-.484,2-1.082,3.848-1.464,5.849-.4,2-1.169,4.084-1.656,6.106-1.862,1.014-4.8,1.136-6.248,1.206-1.733.085-5.027.076-6,.076-.028,0-.052,0-.08,0-.933-.089-1.648-.158-1.8-.2a.91.91,0,0,0-.4-.051c-1.5-.154-4.887-1.488-5.309-2.976a8.2,8.2,0,0,1-1.132-4.772c.041-.154.264-.41.417-.41a5.377,5.377,0,0,1,.863-.155c1.591,0,3.194-.05,4.785-.05a10.056,10.056,0,0,1,2.165.154,2.759,2.759,0,0,0,.653.051,5.283,5.283,0,0,1,1.471.256,1.157,1.157,0,0,0,.5.052.513.513,0,0,0,.362-.206,5.716,5.716,0,0,0,.255-.564l.563-2.1a17.515,17.515,0,0,1,1.024-3.437c.148-.36-.027-.668-.386-.668-.167.052-.373.052-.591.1a18.212,18.212,0,0,1-4.961.513,3.564,3.564,0,0,1-.835.052,20.965,20.965,0,0,1-2.5.154,8.8,8.8,0,0,1-2.076-.1c-.1,0-.141-.051-.113-.154a13.254,13.254,0,0,1,3.1-4.1c.195-.155.181-.1.377-.257.261-.206.558-.359.766-.565a14.111,14.111,0,0,1,1.689-1.129,13.227,13.227,0,0,1,4.829-1.744c.871,0,1.706-.051,2.528-.051a2.606,2.606,0,0,1,1.1.1c.574.153,1.891.41,2.15.974.113.154.136.257.249.411a2.625,2.625,0,0,0,.239.257c.038.05.089.05.244.05a.388.388,0,0,0,.283-.1c.3-.359.6-.718.853-1.077a2.037,2.037,0,0,0,.333-.668,3.045,3.045,0,0,0,.435-.667,38.391,38.391,0,0,0,2-3.437c.32-.616.323-.822-.145-1.181a4.377,4.377,0,0,0-2.686-1.077,2.78,2.78,0,0,1-.655-.051,16.505,16.505,0,0,0-2.062-.154,14.119,14.119,0,0,0-2.363.2,2.92,2.92,0,0,1-.733.051c-4.669,0-10.622,2.874-14.029,6.979-1.038,1.385-2.05,2.667-2.985,4.053a17.1,17.1,0,0,0-2.635,5.233c-.256.77-.448,1.488-.706,2.258a1.294,1.294,0,0,0-.086.513,15.374,15.374,0,0,0-.2,5.131,11.476,11.476,0,0,0,3.983,7.542,5.051,5.051,0,0,1,.923.77,5.529,5.529,0,0,0,2.44,1.231,15,15,0,0,0,4.4,1.127v0c.756.052,1.474.052,2.127.1h.018l.073,0c.884-.04,5.274-.051,6.1-.049.269-.014,5.334-.111,5.334-.111l.234.01c.871,0,1.744,0,2.732-.051h.617a4.769,4.769,0,0,0,.858.051h2.309a.894.894,0,0,0,.49-.1.836.836,0,0,0,.6-1.282,2.569,2.569,0,0,1-.512-1.54,8.331,8.331,0,0,1,.31-1.539c.21-.975.475-2.155.685-3.13l.646-2.412c.151-.564.186-1.077.388-1.641A7.928,7.928,0,0,1,383,48.384a.526.526,0,0,1,.441-.308h2.72c.155,0,.28.1.263.359.091.616.234,1.232.34,1.8.227.873.289,1.8.466,2.668a10.684,10.684,0,0,0,.4,1.95c.114.154.035.257.045.411a3.86,3.86,0,0,0,.052,1.333c.109,3.233,1.044,5.49,4.682,5.7a6.775,6.775,0,0,0,4.021-1.026,5.056,5.056,0,0,0,1.483-1.9c.148-.359.05-.564-.309-.564-3.575-.257-3.648-4-4.432-6.824-.1-.205-.031-.462-.129-.668-.276-1.077-.384-2.2-.556-3.283-.048-.205.031-.308.3-.36a16.286,16.286,0,0,0,8.165-6.156c.093-.154.251-.36.344-.513.285-.873.813-1.694,1.2-2.566a2.845,2.845,0,0,0,.5-1.488C403.136,30.887,401.574,27.142,395.058,27.142Zm1.545,9.749a6.694,6.694,0,0,1-6.082,5.08c-.565,0-1-.1-1.563-.1a1.734,1.734,0,0,0-.528.051,2.226,2.226,0,0,1-.629.052c-.41,0-.807-.052-1.218-.052l-.014.052h-1.744c-.2,0-.28-.1-.211-.359.155-.77.361-1.54.567-2.31l1.361-5.079c.124-.462.306-.565.706-.719a2.842,2.842,0,0,1,.605-.153c.1,0,.206,0,.243.051a7.352,7.352,0,0,0,1.065.051c1.23,0,2.424-.051,3.67-.1a6.644,6.644,0,0,0,1.012.051C395.844,33.4,397.194,34.685,396.6,36.891Z" fill="#e9e4dc"/>
        <path id="Path_31" data-name="Path 31" d="M437.441,27.6c.045-.359-.7-.462-.953-.462a1.045,1.045,0,0,0-.452.154.39.39,0,0,1-.258,0,1.864,1.864,0,0,0-.577.052h-.514a4.255,4.255,0,0,0-1.151-.1,16.5,16.5,0,0,0-2.268-.154c-.616,0-1.209.1-1.837.154a.836.836,0,0,0-.772.769,2.723,2.723,0,0,1-.234.872c-.2.36-.448.719-.711,1.129a25.45,25.45,0,0,1-2,2.31c-.315.41-5.331,6.875-5.907,7.49-.079.1-.144.155-.2.155a.378.378,0,0,0-.177-.1c.028-.1-2.4-6.927-2.96-9.441a2.141,2.141,0,0,1-.094-1.18c.013-.051-.038-.051-.024-.1l-.038-.051c.1-.565-.084-1.026.273-1.591.079-.1.055-.2-.11-.359a.148.148,0,0,0-.139-.051c-.155,0-.284.1-.425.051-.051,0-.14-.051-.191-.051-.257,0-.592.1-.848.1h-.36c-.256,0-.527.051-.783.051h-2.258c-.55-.051-1-.1-1.563-.1a1.035,1.035,0,0,0-.447-.051,1.257,1.257,0,0,0-.476.051,2.654,2.654,0,0,0-.732.052c-.27.051-.524.615-.375.82.086.257.342.257.507.411a3.609,3.609,0,0,1,.788,1.077,5.9,5.9,0,0,1,.631,1.283,5.617,5.617,0,0,0,.45,1.385c.311.565.47,1.694.78,2.258a4.2,4.2,0,0,1,.454,1.181c.113.153,1.3,3.18,2.131,5.643a26.393,26.393,0,0,1,.941,3.951,6.267,6.267,0,0,1,.314,1.129,16.37,16.37,0,0,1-.869,3.438A2.567,2.567,0,0,0,413.778,51l-.042.154c-.065.051-.092.153-.134.308l-.041.154-.105.2a5.054,5.054,0,0,0-.271.821,6.281,6.281,0,0,1-.495,1.847A1.862,1.862,0,0,0,412.5,55c-.2.564-.478,1.59-.492,1.642a17.16,17.16,0,0,0-.715,2.668,1.993,1.993,0,0,1-.3.718,2.112,2.112,0,0,1-.346.719c-.2.154-.251.359-.5.513a1.2,1.2,0,0,0-.372.616c-.041.154.035.256.291.256a2.8,2.8,0,0,0,.756.051h1.129c.807.052,1.512.1,2.333.1a12.964,12.964,0,0,0,1.4-.051h.615c.708-.155,1.09-.616.789-1.027a1.456,1.456,0,0,1-.108-1.129,16.029,16.029,0,0,1,.474-2.155l.138-.513c.041-.153.017-.256.058-.41.151-.565.34-1.078.44-1.642a12.881,12.881,0,0,1,.357-1.334c.1-.359.142-.719.251-1.129.231-.667.512-1.334.691-2,.193-.718,1.518-4.515,1.518-4.515a5.172,5.172,0,0,0,.281-.667.653.653,0,0,1,.25-.359,5.441,5.441,0,0,1,.644-.872,22.666,22.666,0,0,1,2.533-3.13,3.672,3.672,0,0,0,.287-.308,11.28,11.28,0,0,0,1.155-1.436,3.542,3.542,0,0,1,.562-.565c.221-.257,1.113-1.283,1.178-1.334.079-.1,1.215-1.283,1.229-1.334.2-.154.172-.257.368-.41a2.518,2.518,0,0,0,.4-.359,13.992,13.992,0,0,1,1.466-1.642c.208-.206.391-.309.5-.514a5.764,5.764,0,0,1,.876-.974c.052,0,.117-.052.145-.154l1.1-1.232a9.4,9.4,0,0,1,1.62-1.642,17.8,17.8,0,0,0,1.756-1.385A.585.585,0,0,0,437.441,27.6Z" fill="#e9e4dc"/>
      </g>
      <path id="Path_40" data-name="Path 40" d="M445.847,76.773c-1.489-.165-2.45-.165-4.068-.22h-.72c-1.682,0-3.254.11-4.935.11h-1.2c-.241,0-.547.055-1.332.11a12.563,12.563,0,0,1-1.44,0c-2.164,0-4.084,0-6.663-.055H421.4c-1.2,0-2.225.055-3.187.055h-.72c-1.617-.055-2.578-.055-4.26-.055h-18.02c-.962,0-2.1-.055-3.058-.055-1.139-.055-2.1-.055-3.062-.055-.479,0-1.2,0-1.983.055-.482,0-.788.055-1.267.055a8.769,8.769,0,0,1-1.2,0,13.187,13.187,0,0,0-1.855-.055h-3.6c-.961,0-2.164,0-3.3-.055-.124,0-.259-.006-.386-.009a3.948,3.948,0,0,0-.647-.087c-1.376-.169-2.264-.169-3.758-.225h-.666c-1.554,0-3.006.112-4.56.112h-1.108c-.2,0-.476.048-1.078.1l-2.552.013c-1.592,0-3.138-.009-5.088-.056h-3.776c-.914,0-1.705.033-2.457.047l-1.642-.006c-1.205-.038-2.078-.041-3.447-.041h-1.825c-.256-.008-.525-.014-.851-.014-1.155-.054-1.393-.054-2.369-.054-.486,0-3.775,0-4.57.054-.167,0-.576.006-1.054.014h-5.478c.5-.014,1.144-.014.515-.014h-1.752c-.7-.016-1.434-.042-2.091-.042-1.052-.056-1.941-.056-2.829-.056-.443,0-1.108,0-1.832.056-.33,0-.585.026-.868.042H318.2a15.12,15.12,0,0,0-1.62-.042h-3.33c-.888,0-2,0-3.049-.056-1.494-.056-3.271-.056-4.825-.056h-3.773c-1.051-.057-2.159-.057-3.048-.057-1.758,0-3.576.056-5.391.11-3.594-.007-6.2-.007-7.062-.007l.078.108a7.654,7.654,0,0,0-2.144.633c-.178.169-.576.337-.756.506-.4.169-.742.281-.639.394.131.506-.568.956-1.223,1.574l-2.2,2.081c-.193.393.62.675,2.234.618.665,0,1.672-.112,2.278-.055a15.145,15.145,0,0,0,1.718.055c3.773,0,6.683.057,10.56.169.725-.056,1.227-.112,1.673-.112.888,0,1.878.112,2.989.112h.442c.889,0,1.554,0,2.059-.056s1.168-.056,2.279-.056c1.494.056,2.766.112,4.32.112,3.773,0,7.549,0,11.706.056h25.087a35.946,35.946,0,0,1,3.654.113c.665,0,.829.056,1.5.056.888,0,1.613-.056,2.561-.112s2.056-.057,2.944-.057h.634c.889.018,1.78.029,2.666.052.262-.018.5-.036.71-.052h2.532c.568.026,1.156.052,1.8.052h.479c.962,0,1.682,0,2.228-.054s1.264-.055,2.467-.055c1.617.055,2.993.109,4.675.109,4.084,0,8.171,0,12.669.055h27.152c1.441,0,2.881,0,3.955.11.72,0,.9.054,1.618.054.961,0,1.745-.054,2.771-.109s2.226-.055,3.187-.055H437.1a4.306,4.306,0,0,0,1.4-.164c2.26-.493,3.863-1.041,4.4-1.7a7.7,7.7,0,0,1,1.433-1.425c.708-.6,1.528-1.1,2.237-1.7.193-.165.387-.33.209-.384C447.094,76.937,446.744,76.828,445.847,76.773Z" fill="#e9e4dc"/>
    </g>
  </g>
</svg>
