<svg xmlns="http://www.w3.org/2000/svg" style="display: none;"><symbol id="brew" viewBox="0 0 512 512"><title>brew</title><path d="M72,464V432H256V416H72V376h32V360H72V344h32V328H72V312h32V296H72V280h32V264H72V224H296v40H264v16h48V203.89a113.129,113.129,0,0,0-72-105.5V32a16.019,16.019,0,0,0-16-16H144a16.019,16.019,0,0,0-16,16V98.387a113.309,113.309,0,0,0-72,105.5V464a32.036,32.036,0,0,0,32,32H280V480H88A16.019,16.019,0,0,1,72,464ZM224,96H144V80h80ZM144,32h80V64H144ZM90.37,147a96.631,96.631,0,0,1,47-35h93.251A97.151,97.151,0,0,1,296,203.89V208H72v-4.11A96.709,96.709,0,0,1,90.37,147Z"/><path d="M148.649,141.947l-5.06-15.178a81.711,81.711,0,0,0-15.709,7.156l8.14,13.775A65.751,65.751,0,0,1,148.649,141.947Z"/><path d="M125.377,155.548,114.623,143.7a81.5,81.5,0,0,0-25.555,47.008l15.79,2.582A65.442,65.442,0,0,1,125.377,155.548Z"/><path d="M224,328V312a40,40,0,0,0-80,0v16a40,40,0,0,0,80,0Zm-64,0V312a24.016,24.016,0,0,1,12.368-20.983,50.787,50.787,0,0,0,4.477,32.561,34.958,34.958,0,0,1,1.909,26.863l-.3.905A24.038,24.038,0,0,1,160,328Zm48,0a24.016,24.016,0,0,1-12.368,20.983,50.788,50.788,0,0,0-4.477-32.561,34.958,34.958,0,0,1-1.909-26.863l.3-.905A24.038,24.038,0,0,1,208,312Z"/><path d="M184,400a71.975,71.975,0,0,0,21.988-3.421l-4.882-15.238a56.091,56.091,0,0,1-65.619-25.347l-13.85,8.012A72.265,72.265,0,0,0,184,400Z"/><path d="M246.363,364.006l-13.85-8.012A56.4,56.4,0,0,1,212.9,375.981l8.269,13.7A72.444,72.444,0,0,0,246.363,364.006Z"/><path d="M227.721,277,240.205,267a72.072,72.072,0,0,0-82.76-21.938l5.9,14.871A56.071,56.071,0,0,1,227.721,277Z"/><path d="M151.948,266.073l-9.171-13.111A72.35,72.35,0,0,0,127.8,267L140.279,277A56.329,56.329,0,0,1,151.948,266.073Z"/><path d="M448,296H272a8,8,0,0,0-8,8v72a8.013,8.013,0,0,0,.308,2.2l32,112A8,8,0,0,0,304,496H416a8,8,0,0,0,7.692-5.8l32-112A8.013,8.013,0,0,0,456,376V304A8,8,0,0,0,448,296Zm-8,16v24H280V312ZM376,480H344V400a16,16,0,0,1,32,0Zm33.966,0H392V400a16,16,0,0,1,27.928-10.665l11.922-10.671a31.968,31.968,0,0,0-47.85.2,31.934,31.934,0,0,0-48,0,31.968,31.968,0,0,0-47.85-.2l11.922,10.671A16,16,0,0,1,328,400v80H310.034L280,374.879V352H440v22.879Z"/></symbol><symbol id="coffee-maker" viewBox="0 0 512 512"><title>coffee-maker</title><g> <g> <path d="M326.353,344.175c-1.613-1.809-3.934-2.842-6.357-2.842h-153.6c-2.432,0-4.745,1.032-6.357,2.842 c-1.621,1.809-2.398,4.224-2.125,6.63l17.067,153.6c0.478,4.326,4.13,7.595,8.482,7.595h119.467c4.352,0,8.004-3.268,8.482-7.595 l17.067-153.6C328.742,348.399,327.966,345.984,326.353,344.175z M295.283,494.933H191.1L175.927,358.4h134.528L295.283,494.933z"/> </g> </g><g> <g> <path d="M350.724,375.467h-39.253v17.067h39.253c1.877,0,3.413,1.528,3.413,3.413V435.2c0,4.787-2.842,9.122-7.194,11.008 l-47.36,20.224l6.699,15.701l47.403-20.241c10.641-4.617,17.519-15.095,17.519-26.692v-39.253 C371.204,384.657,362.014,375.467,350.724,375.467z"/> </g> </g><g> <g> <rect x="140.796" y="341.333" width="204.8" height="17.067"/> </g> </g><g> <g> <path d="M302.929,102.4H183.462c-4.71,0-8.533,3.823-8.533,8.533v238.933c0,4.719,3.823,8.533,8.533,8.533h119.467 c4.719,0,8.533-3.814,8.533-8.533V110.933C311.462,106.223,307.648,102.4,302.929,102.4z M294.396,341.333h-102.4V119.467h102.4 V341.333z"/> </g> </g><g> <g> <path d="M268.796,34.133h-51.2c-4.71,0-8.533,3.823-8.533,8.533v221.867c0,4.719,3.823,8.533,8.533,8.533h51.2 c4.719,0,8.533-3.814,8.533-8.533V42.667C277.329,37.956,273.515,34.133,268.796,34.133z M260.262,256h-34.133V51.2h34.133V256z"/> </g> </g><g> <g> <path d="M268.796,256h-51.2c-23.526,0-42.667,19.14-42.667,42.667c0,4.719,3.823,8.533,8.533,8.533h119.467 c4.719,0,8.533-3.814,8.533-8.533C311.462,275.14,292.322,256,268.796,256z M193.455,290.133 c3.524-9.933,13.013-17.067,24.141-17.067h51.2c11.127,0,20.617,7.134,24.141,17.067H193.455z"/> </g> </g><g> <g> <path d="M285.862,0h-85.333c-14.114,0-25.6,11.486-25.6,25.6v17.067c0,4.71,3.823,8.533,8.533,8.533h119.467 c4.719,0,8.533-3.823,8.533-8.533V25.6C311.462,11.486,299.977,0,285.862,0z M294.396,34.133h-102.4V25.6 c0-4.702,3.831-8.533,8.533-8.533h85.333c4.71,0,8.533,3.831,8.533,8.533V34.133z"/> </g> </g><g> <g> <rect x="183.462" y="452.267" width="128" height="17.067"/> </g> </g><g> <g> <path d="M262.967,400.341l-12.459-20.736c-3.081-5.154-11.546-5.154-14.626,0l-12.476,20.762 c-3.14,5.282-4.045,11.486-2.534,17.451c1.502,5.965,5.248,10.991,10.547,14.148c3.567,2.116,7.637,3.234,11.776,3.234 c12.706,0,23.031-10.334,23.031-23.057C266.227,407.996,265.101,403.934,262.967,400.341z M240.141,417.289 c-1.365-0.819-2.338-2.116-2.731-3.669c-0.393-1.536-0.162-3.149,0.64-4.497l5.146-8.559l5.129,8.525 c0.546,0.93,0.845,1.997,0.845,3.063C249.169,416.521,243.904,419.541,240.141,417.289z"/> </g> </g></symbol><symbol id="online-shop" viewBox="0 0 480 480"><title>online-shop</title><g> <g> <path d="M319.656,298.112c4.033,0.063,7.861,1.785,10.584,4.76l79.904,86.56l11.744-10.864L367.808,320H368V104 c-0.026-22.08-17.92-39.974-40-40h-32v16h32c13.255,0,24,10.745,24,24v8h-56v16h56v174.872L341.984,292 c-5.663-6.169-13.611-9.741-21.984-9.88c-2.126-0.092-4.255,0.044-6.352,0.408l6.152-24.592L326.248,232H336v-16h-16 c-3.672,0.001-6.871,2.501-7.76,6.064L305.76,248H184c-4.418,0.001-7.999,3.584-7.998,8.002c0,0.652,0.08,1.301,0.238,1.934l16,64 c0.889,3.563,4.088,6.063,7.76,6.064h92.528c1.064,1.928,2.333,3.736,3.784,5.392l6.272,7.056c-1.472,2.2-3.937,3.53-6.584,3.552 H192v16h104c6.551-0.029,12.805-2.734,17.312-7.488l29.736,33.456c-5.639,20.704-2.873,42.797,7.696,61.472 c-3.193,9.865-12.375,16.551-22.744,16.56H168c-13.255,0-24-10.745-24-24v-8h184v-16H144V192h-16v248 c0.026,22.08,17.92,39.974,40,40h160c13.322,0,25.769-6.631,33.2-17.688c2.654,2.939,5.511,5.687,8.552,8.224l9.128,7.616 l10.24-12.304L380,458.24c-21.008-17.364-29.126-45.889-20.408-71.712c0.906-2.711,0.296-5.7-1.6-7.84l-49.704-55.92 c-5.201-5.866-4.942-14.766,0.592-20.32C311.784,299.676,315.641,298.124,319.656,298.112z M198.248,280l-4-16h22.688l2,16 H198.248z M206.248,312l-4-16h18.688l2,16H206.248z M256.936,312h-17.872l-2-16h21.872L256.936,312z M260.936,280h-25.872l-2-16 h29.872L260.936,280z M288.544,312h-15.48l2-16H293.6C290.465,300.762,288.715,306.301,288.544,312z M297.752,280h-20.688l2-16 h22.688L297.752,280z"/> </g> </g><g> <g> <circle cx="208" cy="384" r="16"/> </g> </g><g> <g> <circle cx="288" cy="384" r="16"/> </g> </g><g> <g> <path d="M248,0H40C22.327,0,8,14.327,8,32v112c0,17.673,14.327,32,32,32h208c17.673,0,32-14.327,32-32V32 C280,14.327,265.673,0,248,0z M264,144c0,8.837-7.163,16-16,16H40c-8.837,0-16-7.163-16-16V32c0-8.837,7.163-16,16-16h208 c8.837,0,16,7.163,16,16V144z"/> </g> </g><g> <g> <rect x="40" y="40" width="144" height="16"/> </g> </g><g> <g> <path d="M236.268,91.32c-7.509-4.416-16.822-4.416-24.332,0c-3.614-2.146-7.733-3.292-11.936-3.32c-13.255,0-24,10.745-24,24 s10.745,24,24,24c4.201-0.023,8.321-1.163,11.936-3.304c11.426,6.719,26.135,2.904,32.854-8.522 C251.509,112.748,247.693,98.039,236.268,91.32z M200,120c-4.418,0-8-3.582-8-8s3.582-8,8-8s8,3.582,8,8S204.418,120,200,120z M224,120c-0.477-0.023-0.951-0.09-1.416-0.2c1.883-5.027,1.883-10.565,0-15.592c0.465-0.11,0.939-0.18,1.416-0.208 c4.418,0,8,3.582,8,8S228.418,120,224,120z"/> </g> </g><g> <g> <rect x="40" y="88" width="16" height="16"/> </g> </g><g> <g> <rect x="72" y="88" width="16" height="16"/> </g> </g><g> <g> <rect x="104" y="88" width="16" height="16"/> </g> </g><g> <g> <rect x="136" y="88" width="16" height="16"/> </g> </g><g> <g> <rect x="40" y="120" width="112" height="16"/> </g> </g><g> <g> <path d="M457.104,308.8l-67.2-74.192l-11.856,10.736l67.24,74.264c6.895,7.394,10.724,17.13,10.712,27.24V480h16V346.848 C472.035,332.736,466.711,319.137,457.104,308.8z"/> </g> </g><g> <g> <path d="M267.56,201.344L256,209.048V192h-16v17.048l-11.56-7.704l-8.88,13.312l24,16c2.688,1.794,6.192,1.794,8.88,0l24-16 L267.56,201.344z"/> </g> </g></symbol><symbol id="delivery-bike" viewBox="0 0 480 480.16691"><title>delivery-bike</title><path d="m432.082031 344.039062h-8v-16c0-3.667968-2.496093-6.867187-6.054687-7.757812l-11.648438-2.914062c-9.175781-2.257813-16.15625-9.71875-17.808594-19.023438l-11.429687-90.457031c2.617187-.320313 4.902344-1.921875 6.101563-4.269531l16-32c1.242187-2.480469 1.109374-5.425782-.351563-7.785157-1.457031-2.359375-4.035156-3.792969-6.808594-3.792969h-40c-10.132812.042969-19.148437 6.445313-22.527343 16h-1.472657c0-13.253906-10.742187-24-24-24h-80v-72h8c2.953125 0 5.664063-1.621093 7.054688-4.226562 1.394531-2.601562 1.242187-5.757812-.398438-8.210938l-13.054687-19.5625h22.398437v-16h-24.796875c-4.089844-20.136718-22.773437-33.902343-43.222656-31.835937-20.445312 2.066406-36 19.285156-35.980469 39.835937v184c.011719 10.359376 4.058594 20.304688 11.28125 27.730469-7 4.359375-11.265625 12.019531-11.28125 20.269531v8h-16v-272h-17.503906c-5.511719.007813-10.949219 1.292969-15.886719 3.753907-4.621094 2.328125-9.984375 2.710937-14.886718 1.054687l-13.191407-4.398437c-2.441406-.8125-5.125-.402344-7.207031 1.101562-2.085938 1.503907-3.324219 3.917969-3.324219 6.488281v48c0 3.445313 2.207031 6.503907 5.472657 7.59375l13.191406 4.398438c3.632812 1.214844 7.4375 1.835938 11.265625 1.839844 5.5-.007813 10.917969-1.296875 15.832031-3.765625 2.714844-1.355469 5.703125-2.0625 8.734375-2.066407h1.503906v81.472657c-2.558593-.945313-5.265625-1.445313-8-1.472657h-80c-13.253906 0-23.9999998 10.746094-23.9999998 24v80c.0273438 1.277344.3632808 2.527344.9843748 3.640626-.628906 1.757812-.960937 3.613281-.9843748 5.480468.0195308 7.640625 5.0781248 14.355469 12.4179688 16.480469l43.582031 12.429687v17.96875h-40c-4.417969 0-8 3.582032-8 8v42.121094c-5.289062 10.839844-8.0273435 22.746094-7.9999998 34.808594v19.070312c0 4.417969 3.5820308 8 7.9999998 8h32c0 30.929688 25.074219 56 56 56 30.929688 0 56-25.070312 56-56h10.3125c7.460938 19.28125 26 31.992188 46.671875 32h86.035156c20.671876-.007812 39.210938-12.71875 46.671876-32h18.308593c-.050781 23.023438 13.996094 43.734376 35.40625 52.203126 21.410157 8.46875 45.820313 2.96875 61.53125-13.863282 15.710938-16.828125 19.519531-41.5625 9.601563-62.339844h5.460937c4.417969 0 8-3.582031 8-8-.023437-26.496093-21.5-47.972656-48-48zm30.992188 40h-26.992188c-14.707031.035157-29.011719 4.800782-40.796875 13.601563-7.890625 5.839844-17.277344 9.320313-27.066406 10.039063l-1.808594.175781c-.769531.105469-1.546875.167969-2.328125.183593h-4v-8c.027344-22.078124 17.921875-39.972656 40-40h32c14.589844.023438 27.324219 9.882813 30.992188 24zm-38.992188 40c0 4.417969-3.582031 8-8 8s-8-3.582031-8-8c0-4.417968 3.582031-8 8-8s8 3.582032 8 8zm-44.941406-248-8 16h-19.058594c-1.417969-.035156-2.800781-.460937-4-1.230468 2.46875-1.359375 4-3.953125 4-6.769532 0-2.816406-1.53125-5.40625-4-6.765624 1.199219-.769532 2.582031-1.195313 4-1.234376zm-49.601563 16c2.078126 5.816407 6.320313 10.609376 11.839844 13.378907-9.140625 9.425781-13.957031 22.226562-13.296875 35.34375l7.777344 85.496093-25.960937 45.421876c-4.117188-12.550782-14.171876-22.25-26.863282-25.910157l31.390625-81.601562c4.199219-10.882813 2.765625-23.132813-3.832031-32.753907-6.597656-9.617187-17.511719-15.371093-29.175781-15.375h-57.335938v-16h80c6.789063-.019531 13.246094-2.929687 17.761719-8zm-109.457031 184c-15.460937 0-28-12.535156-28-28 0-15.460937 12.539063-28 28-28h4c8.304688 0 24-6.6875 24-32v-16c-.023437-2.730468-.523437-5.4375-1.46875-8h14.398438l-28.519531 85.472657c0 .121093 0 .25-.074219.367187-.070313.121094-.078125.136719-.09375.21875l-6.488281 25.941406zm-12-160h-48v-52.800781l3.691407 12.5625c3.558593 14.246094 16.359374 24.242188 31.046874 24.238281h13.261719zm8 16h65.335938c6.402343-.003906 12.394531 3.148438 16.019531 8.425782 3.621094 5.277344 4.402344 12.003906 2.09375 17.976562l-32.945312 85.597656h-15.40625l28.496093-85.472656c.8125-2.4375.402344-5.121094-1.101562-7.207031-1.503907-2.085937-3.917969-3.320313-6.492188-3.320313h-88c-10.167969-.011718-19.226562-6.417968-22.628906-16zm30.25 128h25.75c10.167969.011719 19.230469 6.417969 22.632813 16h-52.382813zm65.75-184c0 4.417969-3.582031 8-8 8h-8v-16h8c4.417969 0 8 3.582032 8 8zm-32 8h-85.261719c-7.453124-.027343-13.910156-5.171874-15.609374-12.429687l-13.335938-45.402344c-.851562-3.40625-.085938-7.011719 2.070312-9.78125 2.160157-2.765625 5.476563-4.382812 8.988282-4.386719 5.351562.035157 9.976562 3.757813 11.148437 8.984376l12.328125 41.304687c1.015625 3.390625 4.132813 5.714844 7.671875 5.710937h72zm-72-52-4.558593-15.277343c-.421876-1.621094-.988282-3.203125-1.695313-4.722657h6.253906zm1.34375-79.589843 7.707031 11.589843h-1.050781c-4.417969 0-8 3.582032-8 8v24h-48v-48h48c.003907 1.582032.472657 3.125 1.34375 4.441407zm-25.34375-36.410157c10.136719.042969 19.152344 6.445313 22.53125 16h-45.058593c3.378906-9.554687 12.394531-15.957031 22.527343-16zm-24 256c0-4.417968 3.582031-8 8-8h56c4.417969 0 8 3.582032 8 8v8h-72zm-144-24v-48h96v48zm94.496094-192c-5.511719.007813-10.949219 1.292969-15.886719 3.753907-4.625 2.320312-9.984375 2.703125-14.886718 1.054687l-7.722657-2.574218v-31.128907l2.664063.886719c8.929687 2.996094 18.683594 2.300781 27.097656-1.925781 2.714844-1.355469 5.703125-2.0625 8.734375-2.066407h1.503906v32zm-86.496094 112h80c4.417969 0 8 3.582032 8 8v8h-96v-8c0-4.417968 3.582031-8 8-8zm-8 97.121094c0-.617187.503907-1.121094 1.121094-1.121094h94.878906v16h-46.878906l-48.320313-13.800781c-.472656-.140625-.800781-.582031-.800781-1.078125zm8 62.878906h12.066407c-4.28125 3.410157-8.3125 7.121094-12.066407 11.105469zm72 136c-22.078125-.023437-39.972656-17.917968-40-40h16c0 13.257813 10.746094 24 24 24 13.257813 0 24-10.742187 24-24h16c-.023437 22.082032-17.917969 39.976563-40 40zm8-40c0 4.417969-3.582031 8-8 8s-8-3.582031-8-8zm191.019531 16h-86.035156c-11.769531.007813-22.714844-6.035156-28.984375-16h144c-6.265625 9.964844-17.210937 16.007813-28.980469 16zm48.980469-40v8h-328v-11.070312c0-42.730469 41.929688-65.105469 49.792969-68.929688h86.207031v-16h-80v-16h159.113281c-1.894531 7.199219-6.222656 7.9375-7.113281 8h-4c-24.300781 0-44 19.699219-44 44 0 24.300782 19.699219 44 44 44h84c.863281-.027343 1.714844-.203124 2.523438-.511718 7.136719-1.085938 13.398437-5.34375 17.03125-11.582032l27.390625-47.90625c.832031-1.425781 1.203125-3.074218 1.054687-4.71875l-8-87.28125c-1.183593-12.472656 5.800781-24.289062 17.296875-29.269531l11.367188 89.894531c2.617187 15.703126 14.296875 28.355469 29.738281 32.222657l5.597656 1.402343v9.75h-8c-30.910156.035157-55.964843 25.085938-56 56zm112 24c0 22.09375-17.90625 40-40 40-22.089843 0-40-17.90625-40-40 0-.414062 0-.800781 0-1.253906.585938-.105468 1.136719-.289062 1.722657-.402344 1.054687-.214843 2.085937-.480468 3.128906-.734374 1.875-.46875 3.726562-1.003907 5.550781-1.601563 1.023437-.351563 2.039063-.695313 3.039063-1.09375 1.222656-.480469 2.398437-1.007813 3.601562-1.601563-.664062 2.167969-1.015625 4.421876-1.042969 6.6875-.042969 12.1875 9.054688 22.476563 21.15625 23.921876 12.101563 1.445312 23.367188-6.414063 26.191407-18.269532 2.824218-11.855468-3.683594-23.945312-15.136719-28.113281 3.859375-.964844 7.8125-1.480469 11.789062-1.539063h11.9375c5.226563 6.910157 8.058594 15.335938 8.0625 24zm0 0"/><path d="m104.082031 344.039062h48v16h-48zm0 0"/><path d="m104.082031 376.039062h48v16h-48zm0 0"/></symbol></svg>